999
dxfrw 0.6.3
  0
SECTION
  2
HEADER
  9
$ACADVER
  1
AC1021
  9
$DWGCODEPAGE
  3
ANSI_1252
  9
$INSBASE
 10
0
 20
0
 30
0
  9
$EXTMIN
 10
3.131845276054956
 20
-50.0001
 30
0
  9
$EXTMAX
 10
260
 20
242.2906781186547
 30
0
  9
$LIMMIN
 10
0
 20
0
  9
$LIMMAX
 10
420
 20
297
  9
$ORTHOMODE
 70
    0
  9
$REGENMODE
 70
    1
  9
$FILLMODE
 70
    1
  9
$QTEXTMODE
 70
    0
  9
$MIRRTEXT
 70
    0
  9
$LTSCALE
 40
1
  9
$ATTMODE
 70
    0
  9
$TEXTSIZE
 40
2.5
  9
$TRACEWID
 40
15.68
  9
$TEXTSTYLE
  7
STANDARD
  9
$CLAYER
  8
0
  9
$CELTYPE
  6
BYLAYER
  9
$CECOLOR
 62
  256
  9
$CELTSCALE
 40
1
  9
$DISPSILH
 70
    0
  9
$DIMSCALE
 40
1
  9
$DIMASZ
 40
2.5
  9
$DIMEXO
 40
0.625
  9
$DIMDLI
 40
3.75
  9
$DIMRND
 40
0
  9
$DIMDLE
 40
0
  9
$DIMEXE
 40
1.25
  9
$DIMTP
 40
0
  9
$DIMTM
 40
0
  9
$DIMTXT
 40
2.5
  9
$DIMCEN
 40
2.5
  9
$DIMTSZ
 40
0
  9
$DIMTOL
 70
    0
  9
$DIMLIM
 70
    0
  9
$DIMTIH
 70
    0
  9
$DIMTOH
 70
    0
  9
$DIMSE1
 70
    0
  9
$DIMSE2
 70
    0
  9
$DIMTAD
 70
    1
  9
$DIMZIN
 70
    8
  9
$DIMBLK
  1

  9
$DIMASO
 70
    1
  9
$DIMSHO
 70
    1
  9
$DIMPOST
  1

  9
$DIMAPOST
  1

  9
$DIMALT
 70
    0
  9
$DIMALTD
 70
    3
  9
$DIMALTF
 40
0.03937
  9
$DIMLFAC
 40
1
  9
$DIMTOFL
 70
    1
  9
$DIMTVP
 40
0
  9
$DIMTIX
 70
    0
  9
$DIMSOXD
 70
    0
  9
$DIMSAH
 70
    0
  9
$DIMBLK1
  1

  9
$DIMBLK2
  1

  9
$DIMSTYLE
  2
STANDARD
  9
$DIMCLRD
 70
    0
  9
$DIMCLRE
 70
    0
  9
$DIMCLRT
 70
    0
  9
$DIMTFAC
 40
1
  9
$DIMGAP
 40
0.625
  9
$DIMJUST
 70
    0
  9
$DIMSD1
 70
    0
  9
$DIMSD2
 70
    0
  9
$DIMTOLJ
 70
    0
  9
$DIMTZIN
 70
    8
  9
$DIMALTZ
 70
    0
  9
$DIMALTTZ
 70
    0
  9
$DIMUPT
 70
    0
  9
$DIMDEC
 70
    2
  9
$DIMTDEC
 70
    2
  9
$DIMALTU
 70
    2
  9
$DIMALTTD
 70
    3
  9
$DIMTXSTY
  7
STANDARD
  9
$DIMAUNIT
 70
    0
  9
$DIMADEC
 70
    0
  9
$DIMALTRND
 40
0
  9
$DIMAZIN
 70
    0
  9
$DIMDSEP
 70
   44
  9
$DIMATFIT
 70
    3
  9
$DIMFRAC
 70
    0
  9
$DIMLDRBLK
  1
STANDARD
  9
$DIMLUNIT
 70
    2
  9
$DIMLWD
 70
   -2
  9
$DIMLWE
 70
   -2
  9
$DIMTMOVE
 70
    0
  9
$DIMFXL
 40
1
  9
$DIMFXLON
 70
    0
  9
$DIMJOGANG
 40
0.7854
  9
$DIMTFILL
 70
    0
  9
$DIMTFILLCLR
 70
    0
  9
$DIMARCSYM
 70
    0
  9
$DIMLTYPE
  6

  9
$DIMLTEX1
  6

  9
$DIMLTEX2
  6

  9
$LUNITS
 70
    2
  9
$LUPREC
 70
    4
  9
$SKETCHINC
 40
1
  9
$FILLETRAD
 40
0
  9
$AUNITS
 70
    0
  9
$AUPREC
 70
    2
  9
$MENU
  1
.
  9
$ELEVATION
 40
0
  9
$PELEVATION
 40
0
  9
$THICKNESS
 40
0
  9
$LIMCHECK
 70
    0
  9
$CHAMFERA
 40
0
  9
$CHAMFERB
 40
0
  9
$CHAMFERC
 40
0
  9
$CHAMFERD
 40
0
  9
$SKPOLY
 70
    0
  9
$USRTIMER
 70
    1
  9
$ANGBASE
 50
0
  9
$ANGDIR
 70
    0
  9
$PDMODE
 70
   34
  9
$PDSIZE
 40
0
  9
$PLINEWID
 40
0
  9
$SPLFRAME
 70
    0
  9
$SPLINETYPE
 70
    2
  9
$SPLINESEGS
 70
    8
  9
$HANDSEED
  5
20000
  9
$SURFTAB1
 70
    6
  9
$SURFTAB2
 70
    6
  9
$SURFTYPE
 70
    6
  9
$SURFU
 70
    6
  9
$SURFV
 70
    6
  9
$UCSBASE
  2

  9
$UCSNAME
  2

  9
$UCSORG
 10
0
 20
0
 30
0
  9
$UCSXDIR
 10
1
 20
0
 30
0
  9
$UCSYDIR
 10
0
 20
1
 30
0
  9
$UCSORTHOREF
  2

  9
$UCSORTHOVIEW
 70
    0
  9
$UCSORGTOP
 10
0
 20
0
 30
0
  9
$UCSORGBOTTOM
 10
0
 20
0
 30
0
  9
$UCSORGLEFT
 10
0
 20
0
 30
0
  9
$UCSORGRIGHT
 10
0
 20
0
 30
0
  9
$UCSORGFRONT
 10
0
 20
0
 30
0
  9
$UCSORGBACK
 10
0
 20
0
 30
0
  9
$PUCSBASE
  2

  9
$PUCSNAME
  2

  9
$PUCSORG
 10
0
 20
0
 30
0
  9
$PUCSXDIR
 10
1
 20
0
 30
0
  9
$PUCSYDIR
 10
0
 20
1
 30
0
  9
$PUCSORTHOREF
  2

  9
$PUCSORTHOVIEW
 70
    0
  9
$PUCSORGTOP
 10
0
 20
0
 30
0
  9
$PUCSORGBOTTOM
 10
0
 20
0
 30
0
  9
$PUCSORGLEFT
 10
0
 20
0
 30
0
  9
$PUCSORGRIGHT
 10
0
 20
0
 30
0
  9
$PUCSORGFRONT
 10
0
 20
0
 30
0
  9
$PUCSORGBACK
 10
0
 20
0
 30
0
  9
$USERI1
 70
    0
  9
$USERI2
 70
    0
  9
$USERI3
 70
    0
  9
$USERI4
 70
    0
  9
$USERI5
 70
    0
  9
$USERR1
 40
0
  9
$USERR2
 40
0
  9
$USERR3
 40
0
  9
$USERR4
 40
0
  9
$USERR5
 40
0
  9
$WORLDVIEW
 70
    1
  9
$SHADEDGE
 70
    3
  9
$SHADEDIF
 70
   70
  9
$TILEMODE
 70
    1
  9
$MAXACTVP
 70
   64
  9
$PINSBASE
 10
10.24440168851279
 20
79.25483220140299
 30
0
  9
$PLIMCHECK
 70
    0
  9
$PEXTMIN
 10
0
 20
0
 30
0
  9
$PEXTMAX
 10
0
 20
0
 30
0
  9
$GRIDMODE
 70
    1
  9
$SNAPSTYLE
 70
    0
  9
$PLIMMIN
 10
0
 20
0
  9
$PLIMMAX
 10
210
 20
297
  9
$UNITMODE
 70
    0
  9
$VISRETAIN
 70
    1
  9
$PLINEGEN
 70
    0
  9
$PSLTSCALE
 70
    1
  9
$TREEDEPTH
 70
 3020
  9
$CMLSTYLE
  2
Standard
  9
$CMLJUST
 70
    0
  9
$CMLSCALE
 40
20
  9
$PROXYGRAPHICS
 70
    1
  9
$MEASUREMENT
 70
    1
  9
$CELWEIGHT
370
   -1
  9
$ENDCAPS
280
    0
  9
$JOINSTYLE
280
    0
  9
$LWDISPLAY
290
    0
  9
$INSUNITS
 70
    4
  9
$HYPERLINKBASE
  1

  9
$STYLESHEET
  1

  9
$XEDIT
290
    1
  9
$CEPSNTYPE
380
    0
  9
$PSTYLEMODE
290
    1
  9
$EXTNAMES
290
    1
  9
$PSVPSCALE
 40
0.7202120304217562
  9
$OLESTARTUP
290
    0
  9
$SORTENTS
280
  127
  9
$INDEXCTL
280
    0
  9
$HIDETEXT
280
    1
  9
$XCLIPFRAME
290
    0
  9
$HALOGAP
280
    0
  9
$OBSCOLOR
 70
  257
  9
$OBSLTYPE
280
    0
  9
$INTERSECTIONDISPLAY
280
    0
  9
$INTERSECTIONCOLOR
 70
  257
  9
$DIMASSOC
280
    1
  9
$PROJECTNAME
  1

  9
$CAMERADISPLAY
290
    0
  9
$LENSLENGTH
 40
50
  9
$CAMERAHEIGHT
 40
0
  9
$STEPSPERSEC
 40
2
  9
$STEPSIZE
 40
50
  9
$3DDWFPREC
 40
2
  9
$PSOLWIDTH
 40
5
  9
$PSOLHEIGHT
 40
80
  9
$LOFTANG1
 40
1.570796326794897
  9
$LOFTANG2
 40
1.570796326794897
  9
$LOFTMAG1
 40
0
  9
$LOFTMAG2
 40
0
  9
$LOFTPARAM
 70
    7
  9
$LOFTNORMALS
280
    1
  9
$LATITUDE
 40
1
  9
$LONGITUDE
 40
1
  9
$NORTHDIRECTION
 40
0
  9
$TIMEZONE
 70
-8000
  9
$LIGHTGLYPHDISPLAY
280
    1
  9
$TILEMODELIGHTSYNCH
280
    1
  9
$SOLIDHIST
280
    1
  9
$SHOWHIST
280
    1
  9
$DWFFRAME
280
    2
  9
$DGNFRAME
280
    0
  9
$REALWORLDSCALE
290
    1
  9
$INTERFERECOLOR
 62
    1
  9
$CSHADOW
280
    0
  9
$SHADOWPLANELOCATION
 40
0
  0
ENDSEC
  0
SECTION
  2
CLASSES
  0
ENDSEC
  0
SECTION
  2
TABLES
  0
TABLE
  2
VPORT
  5
8
330
0
100
AcDbSymbolTable
 70
    1
  0
VPORT
  5
31
330
2
100
AcDbSymbolTableRecord
100
AcDbViewportTableRecord
  2
*ACTIVE
 70
    0
 10
0
 20
0
 11
1
 21
1
 12
35.49906714295528
 22
26.3682974691663
 13
0
 23
0
 14
10
 24
10
 15
10
 25
10
 16
0
 26
0
 36
1
 17
0
 27
0
 37
0
 40
9.216103969805699
 41
1.814814814814815
 42
50
 43
0
 44
0
 50
0
 51
0
 71
    0
 72
  100
 73
    1
 74
    3
 75
    0
 76
    1
 77
    0
 78
    0
281
    0
 65
    1
110
0
120
0
130
0
111
1
121
0
131
0
112
0
122
1
132
0
 79
    0
146
0
348
10020
 60
    7
 61
    5
292
1
282
    1
141
0
142
0
 63
  250
421
3358443
  0
ENDTAB
  0
TABLE
  2
LTYPE
  5
5
330
0
100
AcDbSymbolTable
 70
    4
  0
LTYPE
  5
14
330
5
100
AcDbSymbolTableRecord
100
AcDbLinetypeTableRecord
  2
ByBlock
 70
    0
  3

 72
   65
 73
    0
 40
0
  0
LTYPE
  5
15
330
5
100
AcDbSymbolTableRecord
100
AcDbLinetypeTableRecord
  2
ByLayer
 70
    0
  3

 72
   65
 73
    0
 40
0
  0
LTYPE
  5
16
330
5
100
AcDbSymbolTableRecord
100
AcDbLinetypeTableRecord
  2
Continuous
 70
    0
  3
Solid line
 72
   65
 73
    0
 40
0
  0
LTYPE
  5
32
330
5
100
AcDbSymbolTableRecord
100
AcDbLinetypeTableRecord
  2
DOT
 70
    0
  3
Dot . . . . . . . . . . . . . . . . . . . . . .
 72
   65
 73
    2
 40
6.35
 49
0
 74
    0
 49
-6.35
 74
    0
  0
LTYPE
  5
33
330
5
100
AcDbSymbolTableRecord
100
AcDbLinetypeTableRecord
  2
DOTTINY
 70
    0
  3
Dot (.15x) .....................................
 72
   65
 73
    2
 40
0.9525
 49
0
 74
    0
 49
-0.9525
 74
    0
  0
LTYPE
  5
34
330
5
100
AcDbSymbolTableRecord
100
AcDbLinetypeTableRecord
  2
DOT2
 70
    0
  3
Dot (.5x) .....................................
 72
   65
 73
    2
 40
3.175
 49
0
 74
    0
 49
-3.175
 74
    0
  0
LTYPE
  5
35
330
5
100
AcDbSymbolTableRecord
100
AcDbLinetypeTableRecord
  2
DOTX2
 70
    0
  3
Dot (2x) .  .  .  .  .  .  .  .  .  .  .  .  .
 72
   65
 73
    2
 40
12.7
 49
0
 74
    0
 49
-12.7
 74
    0
  0
LTYPE
  5
36
330
5
100
AcDbSymbolTableRecord
100
AcDbLinetypeTableRecord
  2
DASHED
 70
    0
  3
Dashed _ _ _ _ _ _ _ _ _ _ _ _ _ _ _ _ _
 72
   65
 73
    2
 40
19.05
 49
12.7
 74
    0
 49
-6.35
 74
    0
  0
LTYPE
  5
37
330
5
100
AcDbSymbolTableRecord
100
AcDbLinetypeTableRecord
  2
DASHEDTINY
 70
    0
  3
Dashed (.15x) _ _ _ _ _ _ _ _ _ _ _ _ _ _ _ _ _
 72
   65
 73
    2
 40
2.8575
 49
1.905
 74
    0
 49
-0.9525
 74
    0
  0
LTYPE
  5
38
330
5
100
AcDbSymbolTableRecord
100
AcDbLinetypeTableRecord
  2
DASHED2
 70
    0
  3
Dashed (.5x) _ _ _ _ _ _ _ _ _ _ _ _ _ _ _ _ _
 72
   65
 73
    2
 40
9.524999999999999
 49
6.35
 74
    0
 49
-3.175
 74
    0
  0
LTYPE
  5
39
330
5
100
AcDbSymbolTableRecord
100
AcDbLinetypeTableRecord
  2
DASHEDX2
 70
    0
  3
Dashed (2x) ____  ____  ____  ____  ____  ___
 72
   65
 73
    2
 40
38.09999999999999
 49
25.4
 74
    0
 49
-12.7
 74
    0
  0
LTYPE
  5
3A
330
5
100
AcDbSymbolTableRecord
100
AcDbLinetypeTableRecord
  2
DASHDOT
 70
    0
  3
Dash dot __ . __ . __ . __ . __ . __ . __ . __
 72
   65
 73
    4
 40
25.4
 49
12.7
 74
    0
 49
-6.35
 74
    0
 49
0
 74
    0
 49
-6.35
 74
    0
  0
LTYPE
  5
3B
330
5
100
AcDbSymbolTableRecord
100
AcDbLinetypeTableRecord
  2
DASHDOTTINY
 70
    0
  3
Dash dot (.15x) _._._._._._._._._._._._._._._.
 72
   65
 73
    4
 40
3.81
 49
1.905
 74
    0
 49
-0.9525
 74
    0
 49
0
 74
    0
 49
-0.9525
 74
    0
  0
LTYPE
  5
3C
330
5
100
AcDbSymbolTableRecord
100
AcDbLinetypeTableRecord
  2
DASHDOT2
 70
    0
  3
Dash dot (.5x) _._._._._._._._._._._._._._._.
 72
   65
 73
    4
 40
12.7
 49
6.35
 74
    0
 49
-3.175
 74
    0
 49
0
 74
    0
 49
-3.175
 74
    0
  0
LTYPE
  5
3D
330
5
100
AcDbSymbolTableRecord
100
AcDbLinetypeTableRecord
  2
DASHDOTX2
 70
    0
  3
Dash dot (2x) ____  .  ____  .  ____  .  ___
 72
   65
 73
    4
 40
50.8
 49
25.4
 74
    0
 49
-12.7
 74
    0
 49
0
 74
    0
 49
-12.7
 74
    0
  0
LTYPE
  5
3E
330
5
100
AcDbSymbolTableRecord
100
AcDbLinetypeTableRecord
  2
DIVIDE
 70
    0
  3
Divide ____ . . ____ . . ____ . . ____ . . ____
 72
   65
 73
    6
 40
31.75
 49
12.7
 74
    0
 49
-6.35
 74
    0
 49
0
 74
    0
 49
-6.35
 74
    0
 49
0
 74
    0
 49
-6.35
 74
    0
  0
LTYPE
  5
3F
330
5
100
AcDbSymbolTableRecord
100
AcDbLinetypeTableRecord
  2
DIVIDETINY
 70
    0
  3
Divide (.15x) __..__..__..__..__..__..__..__.._
 72
   65
 73
    6
 40
4.7625
 49
1.905
 74
    0
 49
-0.9525
 74
    0
 49
0
 74
    0
 49
-0.9525
 74
    0
 49
0
 74
    0
 49
-0.9525
 74
    0
  0
LTYPE
  5
40
330
5
100
AcDbSymbolTableRecord
100
AcDbLinetypeTableRecord
  2
DIVIDE2
 70
    0
  3
Divide (.5x) __..__..__..__..__..__..__..__.._
 72
   65
 73
    6
 40
15.875
 49
6.35
 74
    0
 49
-3.175
 74
    0
 49
0
 74
    0
 49
-3.175
 74
    0
 49
0
 74
    0
 49
-3.175
 74
    0
  0
LTYPE
  5
41
330
5
100
AcDbSymbolTableRecord
100
AcDbLinetypeTableRecord
  2
DIVIDEX2
 70
    0
  3
Divide (2x) ________  .  .  ________  .  .  _
 72
   65
 73
    6
 40
63.5
 49
25.4
 74
    0
 49
-12.7
 74
    0
 49
0
 74
    0
 49
-12.7
 74
    0
 49
0
 74
    0
 49
-12.7
 74
    0
  0
LTYPE
  5
42
330
5
100
AcDbSymbolTableRecord
100
AcDbLinetypeTableRecord
  2
BORDER
 70
    0
  3
Border __ __ . __ __ . __ __ . __ __ . __ __ .
 72
   65
 73
    6
 40
44.45
 49
12.7
 74
    0
 49
-6.35
 74
    0
 49
12.7
 74
    0
 49
-6.35
 74
    0
 49
0
 74
    0
 49
-6.35
 74
    0
  0
LTYPE
  5
43
330
5
100
AcDbSymbolTableRecord
100
AcDbLinetypeTableRecord
  2
BORDERTINY
 70
    0
  3
Border (.15x) __.__.__.__.__.__.__.__.__.__.__.
 72
   65
 73
    6
 40
6.6675
 49
1.905
 74
    0
 49
-0.9525
 74
    0
 49
1.905
 74
    0
 49
-0.9525
 74
    0
 49
0
 74
    0
 49
-0.9525
 74
    0
  0
LTYPE
  5
44
330
5
100
AcDbSymbolTableRecord
100
AcDbLinetypeTableRecord
  2
BORDER2
 70
    0
  3
Border (.5x) __.__.__.__.__.__.__.__.__.__.__.
 72
   65
 73
    6
 40
22.225
 49
6.35
 74
    0
 49
-3.175
 74
    0
 49
6.35
 74
    0
 49
-3.175
 74
    0
 49
0
 74
    0
 49
-3.175
 74
    0
  0
LTYPE
  5
45
330
5
100
AcDbSymbolTableRecord
100
AcDbLinetypeTableRecord
  2
BORDERX2
 70
    0
  3
Border (2x) ____  ____  .  ____  ____  .  ___
 72
   65
 73
    6
 40
88.89999999999999
 49
25.4
 74
    0
 49
-12.7
 74
    0
 49
25.4
 74
    0
 49
-12.7
 74
    0
 49
0
 74
    0
 49
-12.7
 74
    0
  0
LTYPE
  5
46
330
5
100
AcDbSymbolTableRecord
100
AcDbLinetypeTableRecord
  2
CENTER
 70
    0
  3
Center ____ _ ____ _ ____ _ ____ _ ____ _ ____
 72
   65
 73
    4
 40
50.8
 49
31.75
 74
    0
 49
-6.35
 74
    0
 49
6.35
 74
    0
 49
-6.35
 74
    0
  0
LTYPE
  5
47
330
5
100
AcDbSymbolTableRecord
100
AcDbLinetypeTableRecord
  2
CENTERTINY
 70
    0
  3
Center (.15x) ___ _ ___ _ ___ _ ___ _ ___ _ ___
 72
   65
 73
    4
 40
7.619999999999999
 49
4.7625
 74
    0
 49
-0.9525
 74
    0
 49
0.9525
 74
    0
 49
-0.9525
 74
    0
  0
LTYPE
  5
48
330
5
100
AcDbSymbolTableRecord
100
AcDbLinetypeTableRecord
  2
CENTER2
 70
    0
  3
Center (.5x) ___ _ ___ _ ___ _ ___ _ ___ _ ___
 72
   65
 73
    4
 40
28.575
 49
19.05
 74
    0
 49
-3.175
 74
    0
 49
3.175
 74
    0
 49
-3.175
 74
    0
  0
LTYPE
  5
49
330
5
100
AcDbSymbolTableRecord
100
AcDbLinetypeTableRecord
  2
CENTERX2
 70
    0
  3
Center (2x) ________  __  ________  __  _____
 72
   65
 73
    4
 40
101.6
 49
63.5
 74
    0
 49
-12.7
 74
    0
 49
12.7
 74
    0
 49
-12.7
 74
    0
  0
ENDTAB
  0
TABLE
  2
LAYER
  5
2
330
0
100
AcDbSymbolTable
 70
    1
  0
LAYER
  5
10
330
2
100
AcDbSymbolTableRecord
100
AcDbLayerTableRecord
  2
0
 70
    0
 62
    7
  6
CONTINUOUS
370
    0
390
F
  0
ENDTAB
  0
TABLE
  2
STYLE
  5
3
330
0
100
AcDbSymbolTable
 70
    3
  0
STYLE
  5
4A
330
2
100
AcDbSymbolTableRecord
100
AcDbTextStyleTableRecord
  2
Standard
 70
    0
 40
0
 41
1
 50
0
 71
    0
 42
1
  3
txt
  4

  0
ENDTAB
  0
TABLE
  2
VIEW
  5
6
330
0
100
AcDbSymbolTable
 70
    0
  0
ENDTAB
  0
TABLE
  2
UCS
  5
7
330
0
100
AcDbSymbolTable
 70
    0
  0
ENDTAB
  0
TABLE
  2
APPID
  5
9
330
0
100
AcDbSymbolTable
 70
    1
  0
APPID
  5
12
330
9
100
AcDbSymbolTableRecord
100
AcDbRegAppTableRecord
  2
ACAD
 70
    0
  0
APPID
  5
4B
330
9
100
AcDbSymbolTableRecord
100
AcDbRegAppTableRecord
  2
LibreCad
 70
    0
  0
ENDTAB
  0
TABLE
  2
DIMSTYLE
  5
A
330
0
100
AcDbSymbolTable
 70
    1
100
AcDbDimStyleTable
 71
    1
  0
DIMSTYLE
105
4C
330
A
100
AcDbSymbolTableRecord
100
AcDbDimStyleTableRecord
  2
Standard
 70
    0
 40
1
 41
2.5
 42
0.625
 43
0.38
 44
1.25
 45
0
 46
0
 47
0
 48
0
 49
1
140
2.5
141
0.09
142
0
143
25.4
144
1
145
0
146
1
147
0.625
148
0
 71
    0
 72
    0
 73
    0
 74
    1
 75
    0
 76
    0
 77
    0
 78
    8
 79
    0
170
    0
171
    2
172
    0
173
    0
174
    0
175
    0
176
    0
177
    0
178
    0
179
    0
271
    2
272
    4
273
    2
274
    2
275
    0
276
    0
277
    2
278
   44
279
    0
280
    0
281
    0
282
    0
283
    1
284
    0
285
    0
286
    0
288
    0
289
    3
340
STANDARD
341

371
   -2
372
   -2
  0
ENDTAB
  0
TABLE
  2
BLOCK_RECORD
  5
1
330
0
100
AcDbSymbolTable
 70
    2
  0
BLOCK_RECORD
  5
1F
330
1
100
AcDbSymbolTableRecord
100
AcDbBlockTableRecord
  2
*Model_Space
 70
    0
280
    1
281
    0
  0
BLOCK_RECORD
  5
1E
330
1
100
AcDbSymbolTableRecord
100
AcDbBlockTableRecord
  2
*Paper_Space
 70
    0
280
    1
281
    0
  0
BLOCK_RECORD
  5
4D
330
1
100
AcDbSymbolTableRecord
100
AcDbBlockTableRecord
  2
*D17
 70
    0
280
    1
281
    0
  0
BLOCK_RECORD
  5
50
330
1
100
AcDbSymbolTableRecord
100
AcDbBlockTableRecord
  2
*D19
 70
    0
280
    1
281
    0
  0
BLOCK_RECORD
  5
53
330
1
100
AcDbSymbolTableRecord
100
AcDbBlockTableRecord
  2
*D15
 70
    0
280
    1
281
    0
  0
BLOCK_RECORD
  5
56
330
1
100
AcDbSymbolTableRecord
100
AcDbBlockTableRecord
  2
*D20
 70
    0
280
    1
281
    0
  0
BLOCK_RECORD
  5
59
330
1
100
AcDbSymbolTableRecord
100
AcDbBlockTableRecord
  2
*D22
 70
    0
280
    1
281
    0
  0
BLOCK_RECORD
  5
5C
330
1
100
AcDbSymbolTableRecord
100
AcDbBlockTableRecord
  2
*D5
 70
    0
280
    1
281
    0
  0
BLOCK_RECORD
  5
5F
330
1
100
AcDbSymbolTableRecord
100
AcDbBlockTableRecord
  2
*D4
 70
    0
280
    1
281
    0
  0
BLOCK_RECORD
  5
62
330
1
100
AcDbSymbolTableRecord
100
AcDbBlockTableRecord
  2
*D7
 70
    0
280
    1
281
    0
  0
BLOCK_RECORD
  5
65
330
1
100
AcDbSymbolTableRecord
100
AcDbBlockTableRecord
  2
*D12
 70
    0
280
    1
281
    0
  0
BLOCK_RECORD
  5
68
330
1
100
AcDbSymbolTableRecord
100
AcDbBlockTableRecord
  2
*D9
 70
    0
280
    1
281
    0
  0
BLOCK_RECORD
  5
6B
330
1
100
AcDbSymbolTableRecord
100
AcDbBlockTableRecord
  2
*D14
 70
    0
280
    1
281
    0
  0
BLOCK_RECORD
  5
6E
330
1
100
AcDbSymbolTableRecord
100
AcDbBlockTableRecord
  2
*D3
 70
    0
280
    1
281
    0
  0
BLOCK_RECORD
  5
71
330
1
100
AcDbSymbolTableRecord
100
AcDbBlockTableRecord
  2
*D24
 70
    0
280
    1
281
    0
  0
BLOCK_RECORD
  5
74
330
1
100
AcDbSymbolTableRecord
100
AcDbBlockTableRecord
  2
*D11
 70
    0
280
    1
281
    0
  0
BLOCK_RECORD
  5
77
330
1
100
AcDbSymbolTableRecord
100
AcDbBlockTableRecord
  2
*D13
 70
    0
280
    1
281
    0
  0
BLOCK_RECORD
  5
7A
330
1
100
AcDbSymbolTableRecord
100
AcDbBlockTableRecord
  2
*D8
 70
    0
280
    1
281
    0
  0
BLOCK_RECORD
  5
7D
330
1
100
AcDbSymbolTableRecord
100
AcDbBlockTableRecord
  2
*D6
 70
    0
280
    1
281
    0
  0
BLOCK_RECORD
  5
80
330
1
100
AcDbSymbolTableRecord
100
AcDbBlockTableRecord
  2
*D21
 70
    0
280
    1
281
    0
  0
BLOCK_RECORD
  5
83
330
1
100
AcDbSymbolTableRecord
100
AcDbBlockTableRecord
  2
*D2
 70
    0
280
    1
281
    0
  0
BLOCK_RECORD
  5
86
330
1
100
AcDbSymbolTableRecord
100
AcDbBlockTableRecord
  2
*D10
 70
    0
280
    1
281
    0
  0
BLOCK_RECORD
  5
89
330
1
100
AcDbSymbolTableRecord
100
AcDbBlockTableRecord
  2
*D23
 70
    0
280
    1
281
    0
  0
BLOCK_RECORD
  5
8C
330
1
100
AcDbSymbolTableRecord
100
AcDbBlockTableRecord
  2
*D18
 70
    0
280
    1
281
    0
  0
BLOCK_RECORD
  5
8F
330
1
100
AcDbSymbolTableRecord
100
AcDbBlockTableRecord
  2
*D16
 70
    0
280
    1
281
    0
  0
BLOCK_RECORD
  5
92
330
1
100
AcDbSymbolTableRecord
100
AcDbBlockTableRecord
  2
*D1
 70
    0
280
    1
281
    0
  0
ENDTAB
  0
ENDSEC
  0
SECTION
  2
BLOCKS
  0
BLOCK
  5
20
330
1F
100
AcDbEntity
  8
0
100
AcDbBlockBegin
  2
*Model_Space
 70
    0
 10
0
 20
0
 30
0
  3
*Model_Space
  1

  0
ENDBLK
  5
21
330
1F
100
AcDbEntity
  8
0
100
AcDbBlockEnd
  0
BLOCK
  5
1C
330
1B
100
AcDbEntity
  8
0
100
AcDbBlockBegin
  2
*Paper_Space
 70
    0
 10
0
 20
0
 30
0
  3
*Paper_Space
  1

  0
ENDBLK
  5
1D
330
1F
100
AcDbEntity
  8
0
100
AcDbBlockEnd
  0
BLOCK
  5
4E
330
4D
100
AcDbEntity
  8
0
100
AcDbBlockBegin
  2
*D17
 70
    1
 10
0
 20
0
  3
*D17
  1

  0
LINE
  5
95
100
AcDbEntity
  8
0
  6
ByBlock
 62
    0
370
   -2
100
AcDbLine
 10
124.4308771104543
 20
133.5990318343994
 11
117.9732066196747
 21
140.0567023251791
  0
LINE
  5
96
100
AcDbEntity
  8
0
  6
ByBlock
 62
    0
370
   -2
100
AcDbLine
 10
166.8572839816472
 20
176.0254387055923
 11
160.3996134908675
 21
182.483109196372
  0
LINE
  5
97
100
AcDbEntity
  8
0
  6
ByBlock
 62
    0
370
   -2
100
AcDbLine
 10
118.8570900961578
 20
139.172818848696
 11
161.2834969673507
 21
181.5992257198888
  0
SOLID
  5
98
100
AcDbEntity
  8
0
  6
ByBlock
 62
    0
370
   -2
100
AcDbTrace
 10
118.8570900961578
 20
139.172818848696
 30
0
 11
120.3304993447091
 21
141.2349435060774
 31
0
 12
120.9192147535393
 22
140.6462280972472
 32
0
 13
120.9192147535393
 23
140.6462280972472
 33
0
  0
SOLID
  5
99
100
AcDbEntity
  8
0
  6
ByBlock
 62
    0
370
   -2
100
AcDbTrace
 10
161.2834969673507
 20
181.5992257198888
 30
0
 11
159.8100877187994
 21
179.5371010625073
 31
0
 12
159.2213723099692
 22
180.1258164713375
 32
0
 13
159.2213723099692
 23
180.1258164713375
 33
0
  0
MTEXT
  5
9A
100
AcDbEntity
  8
0
  6
CONTINUOUS
 62
    0
370
   -2
100
AcDbMText
 10
138.7444683170295
 20
161.7118474990172
 30
0
 40
2.5
 41
3.055555555555711
 71
    5
 72
    1
  1
60
  7
STANDARD
210
0
220
0
230
1
 50
44.99999999999997
 73
    2
 44
1
  0
ENDBLK
  5
4F
330
4D
100
AcDbEntity
  8
0
100
AcDbBlockEnd
  0
BLOCK
  5
51
330
50
100
AcDbEntity
  8
0
100
AcDbBlockBegin
  2
*D19
 70
    1
 10
0
 20
0
  3
*D19
  1

  0
LINE
  5
9B
100
AcDbEntity
  8
0
  6
ByBlock
 62
    0
370
   -2
100
AcDbLine
 10
119.5580582617584
 20
100.4419417382416
 11
114.9797064458371
 21
105.0202935541629
  0
LINE
  5
9C
100
AcDbEntity
  8
0
  6
ByBlock
 62
    0
370
   -2
100
AcDbLine
 10
138.5730127341853
 20
119.4568962106685
 11
133.994660918264
 21
124.0352480265898
  0
LINE
  5
9D
100
AcDbEntity
  8
0
  6
ByBlock
 62
    0
370
   -2
100
AcDbLine
 10
115.8635899223203
 20
104.1364100776797
 11
134.8785443947472
 21
123.1513645501066
  0
SOLID
  5
9E
100
AcDbEntity
  8
0
  6
ByBlock
 62
    0
370
   -2
100
AcDbTrace
 10
115.8635899223203
 20
104.1364100776797
 30
0
 11
117.3369991708715
 21
106.1985347350612
 31
0
 12
117.9257145797017
 22
105.609819326231
 32
0
 13
117.9257145797017
 23
105.609819326231
 33
0
  0
SOLID
  5
9F
100
AcDbEntity
  8
0
  6
ByBlock
 62
    0
370
   -2
100
AcDbTrace
 10
134.8785443947472
 20
123.1513645501066
 30
0
 11
133.4051351461959
 21
121.0892398927252
 31
0
 12
132.8164197373657
 22
121.6779553015554
 32
0
 13
132.8164197373657
 23
121.6779553015554
 33
0
  0
MTEXT
  5
A0
100
AcDbEntity
  8
0
  6
CONTINUOUS
 62
    0
370
   -2
100
AcDbMText
 10
124.0452419438089
 20
114.9697125286179
 30
0
 40
2.5
 41
7.916666666666823
 71
    5
 72
    1
  1
26,89
  7
STANDARD
210
0
220
0
230
1
 50
45.00000000000003
 73
    2
 44
1
  0
ENDBLK
  5
52
330
50
100
AcDbEntity
  8
0
100
AcDbBlockEnd
  0
BLOCK
  5
54
330
53
100
AcDbEntity
  8
0
100
AcDbBlockBegin
  2
*D15
 70
    1
 10
0
 20
0
  3
*D15
  1

  0
LINE
  5
A1
100
AcDbEntity
  8
0
  6
ByBlock
 62
    0
370
   -2
100
AcDbLine
 10
36.62194173824162
 20
171.1380582617584
 11
39.76388347648317
 21
167.9961165235168
  0
LINE
  5
A2
100
AcDbEntity
  8
0
  6
ByBlock
 62
    0
370
   -2
100
AcDbLine
 10
79.04834860943446
 20
213.5644651329512
 11
82.190290347676
 21
210.4225233947096
  0
LINE
  5
A3
100
AcDbEntity
  8
0
  6
ByBlock
 62
    0
370
   -2
100
AcDbLine
 10
38.88
 20
168.88
 11
81.30640687119282
 21
211.3064068711928
  0
SOLID
  5
A4
100
AcDbEntity
  8
0
  6
ByBlock
 62
    0
370
   -2
100
AcDbTrace
 10
38.88
 20
168.88
 30
0
 11
40.35340924855127
 21
170.9421246573815
 31
0
 12
40.94212465738146
 22
170.3534092485513
 32
0
 13
40.94212465738146
 23
170.3534092485513
 33
0
  0
SOLID
  5
A5
100
AcDbEntity
  8
0
  6
ByBlock
 62
    0
370
   -2
100
AcDbTrace
 10
81.30640687119282
 20
211.3064068711928
 30
0
 11
79.83299762264154
 21
209.2442822138113
 31
0
 12
79.24428221381136
 22
209.8329976226415
 32
0
 13
79.24428221381136
 23
209.8329976226415
 33
0
  0
MTEXT
  5
A6
100
AcDbEntity
  8
0
  6
CONTINUOUS
 62
    0
370
   -2
100
AcDbMText
 10
58.76737822087163
 20
191.4190286503212
 30
0
 40
2.5
 41
3.055555555555711
 71
    5
 72
    1
  1
60
  7
STANDARD
210
0
220
0
230
1
 50
44.99999999999995
 73
    2
 44
1
  0
ENDBLK
  5
55
330
53
100
AcDbEntity
  8
0
100
AcDbBlockEnd
  0
BLOCK
  5
57
330
56
100
AcDbEntity
  8
0
100
AcDbBlockBegin
  2
*D20
 70
    1
 10
0
 20
0
  3
*D20
  1

  0
LINE
  5
A7
100
AcDbEntity
  8
0
  6
ByBlock
 62
    0
370
   -2
100
AcDbLine
 10
199.5580582617584
 20
180.4419417382416
 11
195.9428602048535
 21
184.0571397951466
  0
LINE
  5
A8
100
AcDbEntity
  8
0
  6
ByBlock
 62
    0
370
   -2
100
AcDbLine
 10
180.9994196053782
 20
161.8833030818613
 11
177.3842215484732
 21
165.4985011387663
  0
LINE
  5
A9
100
AcDbEntity
  8
0
  6
ByBlock
 62
    0
370
   -2
100
AcDbLine
 10
196.8267436813367
 20
183.1732563186634
 11
178.2681050249564
 21
164.6146176622831
  0
SOLID
  5
AA
100
AcDbEntity
  8
0
  6
ByBlock
 62
    0
370
   -2
100
AcDbTrace
 10
196.8267436813367
 20
183.1732563186634
 30
0
 11
195.3533344327854
 21
181.1111316612819
 31
0
 12
194.7646190239552
 22
181.6998470701121
 32
0
 13
194.7646190239552
 23
181.6998470701121
 33
0
  0
SOLID
  5
AB
100
AcDbEntity
  8
0
  6
ByBlock
 62
    0
370
   -2
100
AcDbTrace
 10
178.2681050249564
 20
164.6146176622831
 30
0
 11
179.7415142735076
 21
166.6767423196646
 31
0
 12
180.3302296823379
 22
166.0880269108344
 32
0
 13
180.3302296823379
 23
166.0880269108344
 33
0
  0
MTEXT
  5
AC
100
AcDbEntity
  8
0
  6
CONTINUOUS
 62
    0
370
   -2
100
AcDbMText
 10
186.2215991384218
 20
175.219762205198
 30
0
 40
2.5
 41
7.916666666666977
 71
    5
 72
    1
  1
26,25
  7
STANDARD
210
0
220
0
230
1
 50
45
 73
    2
 44
1
  0
ENDBLK
  5
58
330
56
100
AcDbEntity
  8
0
100
AcDbBlockEnd
  0
BLOCK
  5
5A
330
59
100
AcDbEntity
  8
0
100
AcDbBlockBegin
  2
*D22
 70
    1
 10
0
 20
0
  3
*D22
  1

  0
LINE
  5
AD
100
AcDbEntity
  8
0
  6
ByBlock
 62
    0
370
   -2
100
AcDbLine
 10
211
 20
75.375
 11
211
 21
62.75
  0
LINE
  5
AE
100
AcDbEntity
  8
0
  6
ByBlock
 62
    0
370
   -2
100
AcDbLine
 10
200
 20
75.375
 11
200
 21
62.75
  0
LINE
  5
AF
100
AcDbEntity
  8
0
  6
ByBlock
 62
    0
370
   -2
100
AcDbLine
 10
211
 20
64
 11
200
 21
64
  0
SOLID
  5
B0
100
AcDbEntity
  8
0
  6
ByBlock
 62
    0
370
   -2
100
AcDbTrace
 10
211
 20
64
 30
0
 11
208.5
 21
63.58371534222716
 31
0
 12
208.5
 22
64.41628465777283
 32
0
 13
208.5
 23
64.41628465777283
 33
0
  0
SOLID
  5
B1
100
AcDbEntity
  8
0
  6
ByBlock
 62
    0
370
   -2
100
AcDbTrace
 10
200
 20
64
 30
0
 11
202.5
 21
64.41628465777283
 31
0
 12
202.5
 22
63.58371534222716
 32
0
 13
202.5
 23
63.58371534222716
 33
0
  0
MTEXT
  5
B2
100
AcDbEntity
  8
0
  6
CONTINUOUS
 62
    0
370
   -2
100
AcDbMText
 10
205.5
 20
65.875
 30
0
 40
2.5
 41
1.944444444444444
 71
    5
 72
    1
  1
11
  7
STANDARD
210
0
220
0
230
1
 50
360
 73
    2
 44
1
  0
ENDBLK
  5
5B
330
59
100
AcDbEntity
  8
0
100
AcDbBlockEnd
  0
BLOCK
  5
5D
330
5C
100
AcDbEntity
  8
0
100
AcDbBlockBegin
  2
*D5
 70
    1
 10
0
 20
0
  3
*D5
  1

  0
LINE
  5
B3
100
AcDbEntity
  8
0
  6
ByBlock
 62
    0
370
   -2
100
AcDbLine
 10
119.5580582617584
 20
100.4419417382416
 11
94.11611652351682
 21
125.8838834764832
  0
LINE
  5
B4
100
AcDbEntity
  8
0
  6
ByBlock
 62
    0
370
   -2
100
AcDbLine
 10
199.5580582617584
 20
180.4419417382416
 11
174.1161165235168
 21
205.8838834764832
  0
LINE
  5
B5
100
AcDbEntity
  8
0
  6
ByBlock
 62
    0
370
   -2
100
AcDbLine
 10
95
 20
125
 11
175
 21
205
  0
SOLID
  5
B6
100
AcDbEntity
  8
0
  6
ByBlock
 62
    0
370
   -2
100
AcDbTrace
 10
95
 20
125
 30
0
 11
96.47340924855128
 21
127.0621246573815
 31
0
 12
97.06212465738146
 22
126.4734092485513
 32
0
 13
97.06212465738146
 23
126.4734092485513
 33
0
  0
SOLID
  5
B7
100
AcDbEntity
  8
0
  6
ByBlock
 62
    0
370
   -2
100
AcDbTrace
 10
175
 20
205
 30
0
 11
173.5265907514487
 21
202.9378753426185
 31
0
 12
172.9378753426185
 22
203.5265907514487
 32
0
 13
172.9378753426185
 23
203.5265907514487
 33
0
  0
MTEXT
  5
B8
100
AcDbEntity
  8
0
  6
CONTINUOUS
 62
    0
370
   -2
100
AcDbMText
 10
133.6741747852752
 20
166.3258252147248
 30
0
 40
2.5
 41
8.472222222222378
 71
    5
 72
    1
  1
113,14
  7
STANDARD
210
0
220
0
230
1
 50
45
 73
    2
 44
1
  0
ENDBLK
  5
5E
330
5C
100
AcDbEntity
  8
0
100
AcDbBlockEnd
  0
BLOCK
  5
60
330
5F
100
AcDbEntity
  8
0
100
AcDbBlockBegin
  2
*D4
 70
    1
 10
0
 20
0
  3
*D4
  1

  0
LINE
  5
B9
100
AcDbEntity
  8
0
  6
ByBlock
 62
    0
370
   -2
100
AcDbLine
 10
120
 20
99.375
 11
120
 21
88.75
  0
LINE
  5
BA
100
AcDbEntity
  8
0
  6
ByBlock
 62
    0
370
   -2
100
AcDbLine
 10
200
 20
99.375
 11
200
 21
88.75
  0
LINE
  5
BB
100
AcDbEntity
  8
0
  6
ByBlock
 62
    0
370
   -2
100
AcDbLine
 10
120
 20
90
 11
200
 21
90
  0
SOLID
  5
BC
100
AcDbEntity
  8
0
  6
ByBlock
 62
    0
370
   -2
100
AcDbTrace
 10
120
 20
90
 30
0
 11
122.5
 21
90.41628465777283
 31
0
 12
122.5
 22
89.58371534222717
 32
0
 13
122.5
 23
89.58371534222717
 33
0
  0
SOLID
  5
BD
100
AcDbEntity
  8
0
  6
ByBlock
 62
    0
370
   -2
100
AcDbTrace
 10
200
 20
90
 30
0
 11
197.5
 21
89.58371534222717
 31
0
 12
197.5
 22
90.41628465777283
 32
0
 13
197.5
 23
90.41628465777283
 33
0
  0
MTEXT
  5
BE
100
AcDbEntity
  8
0
  6
CONTINUOUS
 62
    0
370
   -2
100
AcDbMText
 10
160
 20
91.875
 30
0
 40
2.5
 41
3.055555555555556
 71
    5
 72
    1
  1
80
  7
STANDARD
210
0
220
0
230
1
 50
0
 73
    2
 44
1
  0
ENDBLK
  5
61
330
5F
100
AcDbEntity
  8
0
100
AcDbBlockEnd
  0
BLOCK
  5
63
330
62
100
AcDbEntity
  8
0
100
AcDbBlockBegin
  2
*D7
 70
    1
 10
0
 20
0
  3
*D7
  1

  0
LINE
  5
BF
100
AcDbEntity
  8
0
  6
ByBlock
 62
    0
370
   -2
100
AcDbLine
 10
39.375
 20
20
 11
28.75
 21
20
  0
LINE
  5
C0
100
AcDbEntity
  8
0
  6
ByBlock
 62
    0
370
   -2
100
AcDbLine
 10
39.375
 20
90
 11
28.75
 21
90
  0
LINE
  5
C1
100
AcDbEntity
  8
0
  6
ByBlock
 62
    0
370
   -2
100
AcDbLine
 10
30
 20
20
 11
30
 21
90
  0
SOLID
  5
C2
100
AcDbEntity
  8
0
  6
ByBlock
 62
    0
370
   -2
100
AcDbTrace
 10
30
 20
20
 30
0
 11
29.58371534222716
 21
22.5
 31
0
 12
30.41628465777284
 22
22.5
 32
0
 13
30.41628465777284
 23
22.5
 33
0
  0
SOLID
  5
C3
100
AcDbEntity
  8
0
  6
ByBlock
 62
    0
370
   -2
100
AcDbTrace
 10
30
 20
90
 30
0
 11
30.41628465777284
 21
87.5
 31
0
 12
29.58371534222716
 22
87.5
 32
0
 13
29.58371534222716
 23
87.5
 33
0
  0
MTEXT
  5
C4
100
AcDbEntity
  8
0
  6
CONTINUOUS
 62
    0
370
   -2
100
AcDbMText
 10
28.125
 20
55
 30
0
 40
2.5
 41
3.055555555555556
 71
    5
 72
    1
  1
70
  7
STANDARD
210
0
220
0
230
1
 50
90
 73
    2
 44
1
  0
ENDBLK
  5
64
330
62
100
AcDbEntity
  8
0
100
AcDbBlockEnd
  0
BLOCK
  5
66
330
65
100
AcDbEntity
  8
0
100
AcDbBlockBegin
  2
*D12
 70
    1
 10
0
 20
0
  3
*D12
  1

  0
LINE
  5
C5
100
AcDbEntity
  8
0
  6
ByBlock
 62
    0
370
   -2
100
AcDbLine
 10
41
 20
-34.625
 11
41
 21
-37.25
  0
LINE
  5
C6
100
AcDbEntity
  8
0
  6
ByBlock
 62
    0
370
   -2
100
AcDbLine
 10
48
 20
-34.625
 11
48
 21
-37.25
  0
LINE
  5
C7
100
AcDbEntity
  8
0
  6
ByBlock
 62
    0
370
   -2
100
AcDbLine
 10
41
 20
-36
 11
48
 21
-36
  0
SOLID
  5
C8
100
AcDbEntity
  8
0
  6
ByBlock
 62
    0
370
   -2
100
AcDbTrace
 10
41
 20
-36
 30
0
 11
43.5
 21
-35.58371534222716
 31
0
 12
43.5
 22
-36.41628465777284
 32
0
 13
43.5
 23
-36.41628465777284
 33
0
  0
SOLID
  5
C9
100
AcDbEntity
  8
0
  6
ByBlock
 62
    0
370
   -2
100
AcDbTrace
 10
48
 20
-36
 30
0
 11
45.5
 21
-36.41628465777284
 31
0
 12
45.5
 22
-35.58371534222716
 32
0
 13
45.5
 23
-35.58371534222716
 33
0
  0
MTEXT
  5
CA
100
AcDbEntity
  8
0
  6
CONTINUOUS
 62
    0
370
   -2
100
AcDbMText
 10
44.5
 20
-34.125
 30
0
 40
2.5
 41
1.111111111111111
 71
    5
 72
    1
  1
7
  7
STANDARD
210
0
220
0
230
1
 50
0
 73
    2
 44
1
  0
ENDBLK
  5
67
330
65
100
AcDbEntity
  8
0
100
AcDbBlockEnd
  0
BLOCK
  5
69
330
68
100
AcDbEntity
  8
0
100
AcDbBlockBegin
  2
*D9
 70
    1
 10
0
 20
0
  3
*D9
  1

  0
LINE
  5
CB
100
AcDbEntity
  8
0
  6
ByBlock
 62
    0
370
   -2
100
AcDbLine
 10
38
 20
1.625
 11
38
 21
3.25
  0
LINE
  5
CC
100
AcDbEntity
  8
0
  6
ByBlock
 62
    0
370
   -2
100
AcDbLine
 10
52
 20
1.625
 11
52
 21
3.25
  0
LINE
  5
CD
100
AcDbEntity
  8
0
  6
ByBlock
 62
    0
370
   -2
100
AcDbLine
 10
38
 20
2
 11
52
 21
2
  0
SOLID
  5
CE
100
AcDbEntity
  8
0
  6
ByBlock
 62
    0
370
   -2
100
AcDbTrace
 10
38
 20
2
 30
0
 11
40.5
 21
2.41628465777284
 31
0
 12
40.5
 22
1.583715342227159
 32
0
 13
40.5
 23
1.583715342227159
 33
0
  0
SOLID
  5
CF
100
AcDbEntity
  8
0
  6
ByBlock
 62
    0
370
   -2
100
AcDbTrace
 10
52
 20
2
 30
0
 11
49.5
 21
1.58371534222716
 31
0
 12
49.5
 22
2.41628465777284
 32
0
 13
49.5
 23
2.41628465777284
 33
0
  0
MTEXT
  5
D0
100
AcDbEntity
  8
0
  6
CONTINUOUS
 62
    0
370
   -2
100
AcDbMText
 10
45
 20
3.875
 30
0
 40
2.5
 41
2.777777777777778
 71
    5
 72
    1
  1
14
  7
STANDARD
210
0
220
0
230
1
 50
0
 73
    2
 44
1
  0
ENDBLK
  5
6A
330
68
100
AcDbEntity
  8
0
100
AcDbBlockEnd
  0
BLOCK
  5
6C
330
6B
100
AcDbEntity
  8
0
100
AcDbBlockBegin
  2
*D14
 70
    1
 10
0
 20
0
  3
*D14
  1

  0
LINE
  5
D1
100
AcDbEntity
  8
0
  6
ByBlock
 62
    0
370
   -2
100
AcDbLine
 10
35.73805826175845
 20
171.1380582617584
 11
31.41611652351683
 21
166.8161165235168
  0
LINE
  5
D2
100
AcDbEntity
  8
0
  6
ByBlock
 62
    0
370
   -2
100
AcDbLine
 10
7.453787014296571
 20
199.4223295092203
 11
3.131845276054956
 21
195.1003877709786
  0
LINE
  5
D3
100
AcDbEntity
  8
0
  6
ByBlock
 62
    0
370
   -2
100
AcDbLine
 10
32.30000000000001
 20
167.7
 11
4.015728752538137
 21
195.9842712474618
  0
SOLID
  5
D4
100
AcDbEntity
  8
0
  6
ByBlock
 62
    0
370
   -2
100
AcDbTrace
 10
32.30000000000001
 20
167.7
 30
0
 11
30.23787534261855
 21
169.1734092485512
 31
0
 12
30.82659075144874
 22
169.7621246573814
 32
0
 13
30.82659075144874
 23
169.7621246573814
 33
0
  0
SOLID
  5
D5
100
AcDbEntity
  8
0
  6
ByBlock
 62
    0
370
   -2
100
AcDbTrace
 10
4.015728752538137
 20
195.9842712474618
 30
0
 11
6.077853409919602
 21
194.5108619989106
 31
0
 12
5.489138001089409
 22
193.9221465900804
 32
0
 13
5.489138001089409
 23
193.9221465900804
 33
0
  0
MTEXT
  5
D6
100
AcDbEntity
  8
0
  6
CONTINUOUS
 62
    0
370
   -2
100
AcDbMText
 10
19.48368959099385
 20
183.1679608384557
 30
0
 40
2.5
 41
3.333333333333333
 71
    5
 72
    1
  1
40
  7
STANDARD
210
0
220
0
230
1
 50
315
 73
    2
 44
1
  0
ENDBLK
  5
6D
330
6B
100
AcDbEntity
  8
0
100
AcDbBlockEnd
  0
BLOCK
  5
6F
330
6E
100
AcDbEntity
  8
0
100
AcDbBlockBegin
  2
*D3
 70
    1
 10
0
 20
0
  3
*D3
  1

  0
LINE
  5
D7
100
AcDbEntity
  8
0
  6
ByBlock
 62
    0
370
   -2
100
AcDbLine
 10
199.375
 20
99.99994424349917
 11
178.75
 21
99.99994424349919
  0
LINE
  5
D8
100
AcDbEntity
  8
0
  6
ByBlock
 62
    0
370
   -2
100
AcDbLine
 10
199.375
 20
-40.00005575650083
 11
178.75
 21
-40.00005575650081
  0
LINE
  5
D9
100
AcDbEntity
  8
0
  6
ByBlock
 62
    0
370
   -2
100
AcDbLine
 10
180
 20
99.99994424349919
 11
180
 21
-40.00005575650081
  0
SOLID
  5
DA
100
AcDbEntity
  8
0
  6
ByBlock
 62
    0
370
   -2
100
AcDbTrace
 10
180
 20
99.99994424349919
 30
0
 11
180.4162846577728
 21
97.49994424349919
 31
0
 12
179.5837153422272
 22
97.49994424349919
 32
0
 13
179.5837153422272
 23
97.49994424349919
 33
0
  0
SOLID
  5
DB
100
AcDbEntity
  8
0
  6
ByBlock
 62
    0
370
   -2
100
AcDbTrace
 10
180
 20
-40.00005575650081
 30
0
 11
179.5837153422272
 21
-37.50005575650081
 31
0
 12
180.4162846577728
 22
-37.50005575650081
 32
0
 13
180.4162846577728
 23
-37.50005575650081
 33
0
  0
MTEXT
  5
DC
100
AcDbEntity
  8
0
  6
CONTINUOUS
 62
    0
370
   -2
100
AcDbMText
 10
178.125
 20
29.99994424349919
 30
0
 40
2.5
 41
4.722222222222222
 71
    5
 72
    1
  1
140
  7
STANDARD
210
0
220
0
230
1
 50
90
 73
    2
 44
1
  0
ENDBLK
  5
70
330
6E
100
AcDbEntity
  8
0
100
AcDbBlockEnd
  0
BLOCK
  5
72
330
71
100
AcDbEntity
  8
0
100
AcDbBlockBegin
  2
*D24
 70
    1
 10
0
 20
0
  3
*D24
  1

  0
LINE
  5
DD
100
AcDbEntity
  8
0
  6
ByBlock
 62
    0
370
   -2
100
AcDbLine
 10
210.4419417382416
 20
67.4419417382416
 11
211.8838834764832
 21
68.88388347648316
  0
LINE
  5
DE
100
AcDbEntity
  8
0
  6
ByBlock
 62
    0
370
   -2
100
AcDbLine
 10
200.3601091525436
 20
77.52377432393958
 11
201.8020508907852
 21
78.96571606218114
  0
LINE
  5
DF
100
AcDbEntity
  8
0
  6
ByBlock
 62
    0
370
   -2
100
AcDbLine
 10
211
 20
67.99999999999999
 11
200.918167414302
 21
78.08183258569797
  0
SOLID
  5
E0
100
AcDbEntity
  8
0
  6
ByBlock
 62
    0
370
   -2
100
AcDbTrace
 10
211
 20
67.99999999999999
 30
0
 11
208.9378753426185
 21
69.47340924855126
 31
0
 12
209.5265907514487
 22
70.06212465738145
 32
0
 13
209.5265907514487
 23
70.06212465738145
 33
0
  0
SOLID
  5
E1
100
AcDbEntity
  8
0
  6
ByBlock
 62
    0
370
   -2
100
AcDbTrace
 10
200.918167414302
 20
78.08183258569797
 30
0
 11
202.9802920716835
 21
76.60842333714669
 31
0
 12
202.3915766628533
 22
76.01970792831649
 32
0
 13
202.3915766628533
 23
76.01970792831649
 33
0
  0
MTEXT
  5
E2
100
AcDbEntity
  8
0
  6
CONTINUOUS
 62
    0
370
   -2
100
AcDbMText
 10
207.2849089218758
 20
74.36674150757375
 30
0
 40
2.5
 41
7.638888888889044
 71
    5
 72
    1
  1
14,26
  7
STANDARD
210
0
220
0
230
1
 50
314.9999999999999
 73
    2
 44
1
  0
ENDBLK
  5
73
330
71
100
AcDbEntity
  8
0
100
AcDbBlockEnd
  0
BLOCK
  5
75
330
74
100
AcDbEntity
  8
0
100
AcDbBlockBegin
  2
*D11
 70
    1
 10
0
 20
0
  3
*D11
  1

  0
LINE
  5
E3
100
AcDbEntity
  8
0
  6
ByBlock
 62
    0
370
   -2
100
AcDbLine
 10
40.375
 20
-21
 11
31.75
 21
-21
  0
LINE
  5
E4
100
AcDbEntity
  8
0
  6
ByBlock
 62
    0
370
   -2
100
AcDbLine
 10
40.375
 20
-34
 11
31.75
 21
-34
  0
LINE
  5
E5
100
AcDbEntity
  8
0
  6
ByBlock
 62
    0
370
   -2
100
AcDbLine
 10
33
 20
-21
 11
33
 21
-34
  0
SOLID
  5
E6
100
AcDbEntity
  8
0
  6
ByBlock
 62
    0
370
   -2
100
AcDbTrace
 10
33
 20
-21
 30
0
 11
33.41628465777284
 21
-23.5
 31
0
 12
32.58371534222716
 22
-23.5
 32
0
 13
32.58371534222716
 23
-23.5
 33
0
  0
SOLID
  5
E7
100
AcDbEntity
  8
0
  6
ByBlock
 62
    0
370
   -2
100
AcDbTrace
 10
33
 20
-34
 30
0
 11
32.58371534222716
 21
-31.5
 31
0
 12
33.41628465777284
 22
-31.5
 32
0
 13
33.41628465777284
 23
-31.5
 33
0
  0
MTEXT
  5
E8
100
AcDbEntity
  8
0
  6
CONTINUOUS
 62
    0
370
   -2
100
AcDbMText
 10
31.125
 20
-27.5
 30
0
 40
2.5
 41
2.500000000000155
 71
    5
 72
    1
  1
13
  7
STANDARD
210
0
220
0
230
1
 50
90
 73
    2
 44
1
  0
ENDBLK
  5
76
330
74
100
AcDbEntity
  8
0
100
AcDbBlockEnd
  0
BLOCK
  5
78
330
77
100
AcDbEntity
  8
0
100
AcDbBlockBegin
  2
*D13
 70
    1
 10
0
 20
0
  3
*D13
  1

  0
LINE
  5
E9
100
AcDbEntity
  8
0
  6
ByBlock
 62
    0
370
   -2
100
AcDbLine
 10
50
 20
149.375
 11
50
 21
146.75
  0
LINE
  5
EA
100
AcDbEntity
  8
0
  6
ByBlock
 62
    0
370
   -2
100
AcDbLine
 10
35
 20
149.375
 11
35
 21
146.75
  0
LINE
  5
EB
100
AcDbEntity
  8
0
  6
ByBlock
 62
    0
370
   -2
100
AcDbLine
 10
50
 20
148
 11
35
 21
148
  0
SOLID
  5
EC
100
AcDbEntity
  8
0
  6
ByBlock
 62
    0
370
   -2
100
AcDbTrace
 10
50
 20
148
 30
0
 11
47.5
 21
147.5837153422272
 31
0
 12
47.5
 22
148.4162846577728
 32
0
 13
47.5
 23
148.4162846577728
 33
0
  0
SOLID
  5
ED
100
AcDbEntity
  8
0
  6
ByBlock
 62
    0
370
   -2
100
AcDbTrace
 10
35
 20
148
 30
0
 11
37.5
 21
148.4162846577728
 31
0
 12
37.5
 22
147.5837153422272
 32
0
 13
37.5
 23
147.5837153422272
 33
0
  0
MTEXT
  5
EE
100
AcDbEntity
  8
0
  6
CONTINUOUS
 62
    0
370
   -2
100
AcDbMText
 10
42.5
 20
149.875
 30
0
 40
2.5
 41
2.500000000000155
 71
    5
 72
    1
  1
15
  7
STANDARD
210
0
220
0
230
1
 50
360
 73
    2
 44
1
  0
ENDBLK
  5
79
330
77
100
AcDbEntity
  8
0
100
AcDbBlockEnd
  0
BLOCK
  5
7B
330
7A
100
AcDbEntity
  8
0
100
AcDbBlockBegin
  2
*D8
 70
    1
 10
0
 20
0
  3
*D8
  1

  0
LINE
  5
EF
100
AcDbEntity
  8
0
  6
ByBlock
 62
    0
370
   -2
100
AcDbLine
 10
40
 20
19.375
 11
40
 21
14.75
  0
LINE
  5
F0
100
AcDbEntity
  8
0
  6
ByBlock
 62
    0
370
   -2
100
AcDbLine
 10
62
 20
19.375
 11
62
 21
14.75
  0
LINE
  5
F1
100
AcDbEntity
  8
0
  6
ByBlock
 62
    0
370
   -2
100
AcDbLine
 10
40
 20
16
 11
62
 21
16
  0
SOLID
  5
F2
100
AcDbEntity
  8
0
  6
ByBlock
 62
    0
370
   -2
100
AcDbTrace
 10
40
 20
16
 30
0
 11
42.5
 21
16.41628465777284
 31
0
 12
42.5
 22
15.58371534222716
 32
0
 13
42.5
 23
15.58371534222716
 33
0
  0
SOLID
  5
F3
100
AcDbEntity
  8
0
  6
ByBlock
 62
    0
370
   -2
100
AcDbTrace
 10
62
 20
16
 30
0
 11
59.5
 21
15.58371534222716
 31
0
 12
59.5
 22
16.41628465777284
 32
0
 13
59.5
 23
16.41628465777284
 33
0
  0
MTEXT
  5
F4
100
AcDbEntity
  8
0
  6
CONTINUOUS
 62
    0
370
   -2
100
AcDbMText
 10
51
 20
17.875
 30
0
 40
2.5
 41
3.055555555555556
 71
    5
 72
    1
  1
22
  7
STANDARD
210
0
220
0
230
1
 50
0
 73
    2
 44
1
  0
ENDBLK
  5
7C
330
7A
100
AcDbEntity
  8
0
100
AcDbBlockEnd
  0
BLOCK
  5
7E
330
7D
100
AcDbEntity
  8
0
100
AcDbBlockBegin
  2
*D6
 70
    1
 10
0
 20
0
  3
*D6
  1

  0
LINE
  5
F5
100
AcDbEntity
  8
0
  6
ByBlock
 62
    0
370
   -2
100
AcDbLine
 10
200.625
 20
180
 11
211.25
 21
180
  0
LINE
  5
F6
100
AcDbEntity
  8
0
  6
ByBlock
 62
    0
370
   -2
100
AcDbLine
 10
200.625
 20
100
 11
211.25
 21
100
  0
LINE
  5
F7
100
AcDbEntity
  8
0
  6
ByBlock
 62
    0
370
   -2
100
AcDbLine
 10
210
 20
180
 11
210
 21
100
  0
SOLID
  5
F8
100
AcDbEntity
  8
0
  6
ByBlock
 62
    0
370
   -2
100
AcDbTrace
 10
210
 20
180
 30
0
 11
210.4162846577728
 21
177.5
 31
0
 12
209.5837153422272
 22
177.5
 32
0
 13
209.5837153422272
 23
177.5
 33
0
  0
SOLID
  5
F9
100
AcDbEntity
  8
0
  6
ByBlock
 62
    0
370
   -2
100
AcDbTrace
 10
210
 20
100
 30
0
 11
209.5837153422272
 21
102.5
 31
0
 12
210.4162846577728
 22
102.5
 32
0
 13
210.4162846577728
 23
102.5
 33
0
  0
MTEXT
  5
FA
100
AcDbEntity
  8
0
  6
CONTINUOUS
 62
    0
370
   -2
100
AcDbMText
 10
208.125
 20
140
 30
0
 40
2.5
 41
3.055555555555556
 71
    5
 72
    1
  1
80
  7
STANDARD
210
0
220
0
230
1
 50
90
 73
    2
 44
1
  0
ENDBLK
  5
7F
330
7D
100
AcDbEntity
  8
0
100
AcDbBlockEnd
  0
BLOCK
  5
81
330
80
100
AcDbEntity
  8
0
100
AcDbBlockBegin
  2
*D21
 70
    1
 10
0
 20
0
  3
*D21
  1

  0
LINE
  5
FB
100
AcDbEntity
  8
0
  6
ByBlock
 62
    0
370
   -2
100
AcDbLine
 10
199.375
 20
77
 11
184.75
 21
77
  0
LINE
  5
FC
100
AcDbEntity
  8
0
  6
ByBlock
 62
    0
370
   -2
100
AcDbLine
 10
199.375
 20
100
 11
184.75
 21
100
  0
LINE
  5
FD
100
AcDbEntity
  8
0
  6
ByBlock
 62
    0
370
   -2
100
AcDbLine
 10
186
 20
77
 11
186
 21
100
  0
SOLID
  5
FE
100
AcDbEntity
  8
0
  6
ByBlock
 62
    0
370
   -2
100
AcDbTrace
 10
186
 20
77
 30
0
 11
185.5837153422272
 21
79.5
 31
0
 12
186.4162846577728
 22
79.5
 32
0
 13
186.4162846577728
 23
79.5
 33
0
  0
SOLID
  5
FF
100
AcDbEntity
  8
0
  6
ByBlock
 62
    0
370
   -2
100
AcDbTrace
 10
186
 20
100
 30
0
 11
186.4162846577728
 21
97.5
 31
0
 12
185.5837153422272
 22
97.5
 32
0
 13
185.5837153422272
 23
97.5
 33
0
  0
MTEXT
  5
100
100
AcDbEntity
  8
0
  6
CONTINUOUS
 62
    0
370
   -2
100
AcDbMText
 10
184.125
 20
88.5
 30
0
 40
2.5
 41
3.055555555555711
 71
    5
 72
    1
  1
23
  7
STANDARD
210
0
220
0
230
1
 50
90
 73
    2
 44
1
  0
ENDBLK
  5
82
330
80
100
AcDbEntity
  8
0
100
AcDbBlockEnd
  0
BLOCK
  5
84
330
83
100
AcDbEntity
  8
0
100
AcDbBlockBegin
  2
*D2
 70
    1
 10
0
 20
0
  3
*D2
  1

  0
LINE
  5
101
100
AcDbEntity
  8
0
  6
ByBlock
 62
    0
370
   -2
100
AcDbLine
 10
49.375
 20
101.6
 11
45.75
 21
101.6
  0
LINE
  5
102
100
AcDbEntity
  8
0
  6
ByBlock
 62
    0
370
   -2
100
AcDbLine
 10
49.375
 20
130
 11
45.75
 21
130
  0
LINE
  5
103
100
AcDbEntity
  8
0
  6
ByBlock
 62
    0
370
   -2
100
AcDbLine
 10
47
 20
101.6
 11
47
 21
113.925
  0
SOLID
  5
104
100
AcDbEntity
  8
0
  6
ByBlock
 62
    0
370
   -2
100
AcDbTrace
 10
47
 20
101.6
 30
0
 11
46.58371534222716
 21
104.1
 31
0
 12
47.41628465777284
 22
104.1
 32
0
 13
47.41628465777284
 23
104.1
 33
0
  0
SOLID
  5
105
100
AcDbEntity
  8
0
  6
ByBlock
 62
    0
370
   -2
100
AcDbTrace
 10
47
 20
130
 30
0
 11
47.41628465777284
 21
127.5
 31
0
 12
46.58371534222716
 22
127.5
 32
0
 13
46.58371534222716
 23
127.5
 33
0
  0
LINE
  5
106
100
AcDbEntity
  8
0
  6
ByBlock
 62
    0
370
   -2
100
AcDbLine
 10
47
 20
117.675
 11
47
 21
130
  0
MTEXT
  5
107
100
AcDbEntity
  8
0
  6
CONTINUOUS
 62
    0
370
   -2
100
AcDbMText
 10
45.125
 20
115.8
 30
0
 40
2.5
 41
11.94444444444445
 71
    5
 72
    1
  1
28.4000
  7
standard
210
0
220
0
230
1
 50
0
 73
    2
 44
1
  0
ENDBLK
  5
85
330
83
100
AcDbEntity
  8
0
100
AcDbBlockEnd
  0
BLOCK
  5
87
330
86
100
AcDbEntity
  8
0
100
AcDbBlockBegin
  2
*D10
 70
    1
 10
0
 20
0
  3
*D10
  1

  0
LINE
  5
108
100
AcDbEntity
  8
0
  6
ByBlock
 62
    0
370
   -2
100
AcDbLine
 10
37.375
 20
-21
 11
34.75
 21
-21
  0
LINE
  5
109
100
AcDbEntity
  8
0
  6
ByBlock
 62
    0
370
   -2
100
AcDbLine
 10
37.375
 20
1
 11
34.75
 21
1
  0
LINE
  5
10A
100
AcDbEntity
  8
0
  6
ByBlock
 62
    0
370
   -2
100
AcDbLine
 10
36
 20
-21
 11
36
 21
1
  0
SOLID
  5
10B
100
AcDbEntity
  8
0
  6
ByBlock
 62
    0
370
   -2
100
AcDbTrace
 10
36
 20
-21
 30
0
 11
35.58371534222716
 21
-18.5
 31
0
 12
36.41628465777284
 22
-18.5
 32
0
 13
36.41628465777284
 23
-18.5
 33
0
  0
SOLID
  5
10C
100
AcDbEntity
  8
0
  6
ByBlock
 62
    0
370
   -2
100
AcDbTrace
 10
36
 20
1
 30
0
 11
36.41628465777284
 21
-1.5
 31
0
 12
35.58371534222716
 22
-1.5
 32
0
 13
35.58371534222716
 23
-1.5
 33
0
  0
MTEXT
  5
10D
100
AcDbEntity
  8
0
  6
CONTINUOUS
 62
    0
370
   -2
100
AcDbMText
 10
34.125
 20
-10
 30
0
 40
2.5
 41
3.055555555555556
 71
    5
 72
    1
  1
22
  7
STANDARD
210
0
220
0
230
1
 50
90
 73
    2
 44
1
  0
ENDBLK
  5
88
330
86
100
AcDbEntity
  8
0
100
AcDbBlockEnd
  0
BLOCK
  5
8A
330
89
100
AcDbEntity
  8
0
100
AcDbBlockBegin
  2
*D23
 70
    1
 10
0
 20
0
  3
*D23
  1

  0
LINE
  5
10E
100
AcDbEntity
  8
0
  6
ByBlock
 62
    0
370
   -2
100
AcDbLine
 10
208.8509514805719
 20
65.85095148057185
 11
206.2876893987706
 21
63.28768939877062
  0
LINE
  5
10F
100
AcDbEntity
  8
0
  6
ByBlock
 62
    0
370
   -2
100
AcDbLine
 10
188.7691188948739
 20
85.9327840662698
 11
186.2058568130726
 21
83.36952198446858
  0
LINE
  5
110
100
AcDbEntity
  8
0
  6
ByBlock
 62
    0
370
   -2
100
AcDbLine
 10
207.1715728752538
 20
64.1715728752538
 11
187.0897402895558
 21
84.25340546095175
  0
SOLID
  5
111
100
AcDbEntity
  8
0
  6
ByBlock
 62
    0
370
   -2
100
AcDbTrace
 10
207.1715728752538
 20
64.1715728752538
 30
0
 11
205.1094482178723
 21
65.64498212380508
 31
0
 12
205.6981636267025
 22
66.23369753263526
 32
0
 13
205.6981636267025
 23
66.23369753263526
 33
0
  0
SOLID
  5
112
100
AcDbEntity
  8
0
  6
ByBlock
 62
    0
370
   -2
100
AcDbTrace
 10
187.0897402895558
 20
84.25340546095175
 30
0
 11
189.1518649469373
 21
82.77999621240048
 31
0
 12
188.5631495381071
 22
82.19128080357029
 32
0
 13
188.5631495381071
 23
82.19128080357029
 33
0
  0
MTEXT
  5
113
100
AcDbEntity
  8
0
  6
CONTINUOUS
 62
    0
370
   -2
100
AcDbMText
 10
198.4564817971296
 20
75.53831438282755
 30
0
 40
2.5
 41
6.25
 71
    5
 72
    1
  1
28,4
  7
STANDARD
210
0
220
0
230
1
 50
315
 73
    2
 44
1
  0
ENDBLK
  5
8B
330
89
100
AcDbEntity
  8
0
100
AcDbBlockEnd
  0
BLOCK
  5
8D
330
8C
100
AcDbEntity
  8
0
100
AcDbBlockBegin
  2
*D18
 70
    1
 10
0
 20
0
  3
*D18
  1

  0
LINE
  5
114
100
AcDbEntity
  8
0
  6
ByBlock
 62
    0
370
   -2
100
AcDbLine
 10
166.8572839816472
 20
175.1415552291091
 11
160.6889353722127
 21
168.9732066196746
  0
LINE
  5
115
100
AcDbEntity
  8
0
  6
ByBlock
 62
    0
370
   -2
100
AcDbLine
 10
195.1415552291092
 20
146.8572839816472
 11
188.9732066196747
 21
140.6889353722127
  0
LINE
  5
116
100
AcDbEntity
  8
0
  6
ByBlock
 62
    0
370
   -2
100
AcDbLine
 10
161.5728188486959
 20
169.8570900961578
 11
189.8570900961579
 21
141.5728188486959
  0
SOLID
  5
117
100
AcDbEntity
  8
0
  6
ByBlock
 62
    0
370
   -2
100
AcDbTrace
 10
161.5728188486959
 20
169.8570900961578
 30
0
 11
163.6349435060774
 21
168.3836808476065
 31
0
 12
163.0462280972472
 22
167.7949654387763
 32
0
 13
163.0462280972472
 23
167.7949654387763
 33
0
  0
SOLID
  5
118
100
AcDbEntity
  8
0
  6
ByBlock
 62
    0
370
   -2
100
AcDbTrace
 10
189.8570900961579
 20
141.5728188486959
 30
0
 11
187.7949654387764
 21
143.0462280972472
 31
0
 12
188.3836808476066
 22
143.6349435060774
 32
0
 13
188.3836808476066
 23
143.6349435060774
 33
0
  0
MTEXT
  5
119
100
AcDbEntity
  8
0
  6
CONTINUOUS
 62
    0
370
   -2
100
AcDbMText
 10
177.0407796871517
 20
157.0407796871516
 30
0
 40
2.5
 41
3.333333333333333
 71
    5
 72
    1
  1
40
  7
STANDARD
210
0
220
0
230
1
 50
315.0000000000001
 73
    2
 44
1
  0
ENDBLK
  5
8E
330
8C
100
AcDbEntity
  8
0
100
AcDbBlockEnd
  0
BLOCK
  5
90
330
8F
100
AcDbEntity
  8
0
100
AcDbBlockBegin
  2
*D16
 70
    1
 10
0
 20
0
  3
*D16
  1

  0
LINE
  5
11A
100
AcDbEntity
  8
0
  6
ByBlock
 62
    0
370
   -2
100
AcDbLine
 10
77.46858133386111
 20
167.2270557565008
 11
86.4431138871836
 21
167.2270557565008
  0
LINE
  5
11B
100
AcDbEntity
  8
0
  6
ByBlock
 62
    0
370
   -2
100
AcDbLine
 10
77.46858133386111
 20
192.2270557565008
 11
86.4431138871836
 21
192.2270557565008
  0
LINE
  5
11C
100
AcDbEntity
  8
0
  6
ByBlock
 62
    0
370
   -2
100
AcDbLine
 10
85.1931138871836
 20
167.2270557565008
 11
85.1931138871836
 21
192.2270557565008
  0
SOLID
  5
11D
100
AcDbEntity
  8
0
  6
ByBlock
 62
    0
370
   -2
100
AcDbTrace
 10
85.1931138871836
 20
167.2270557565008
 30
0
 11
84.77682922941077
 21
169.7270557565008
 31
0
 12
85.60939854495643
 22
169.7270557565008
 32
0
 13
85.60939854495643
 23
169.7270557565008
 33
0
  0
SOLID
  5
11E
100
AcDbEntity
  8
0
  6
ByBlock
 62
    0
370
   -2
100
AcDbTrace
 10
85.1931138871836
 20
192.2270557565008
 30
0
 11
85.60939854495643
 21
189.7270557565008
 31
0
 12
84.77682922941077
 22
189.7270557565008
 32
0
 13
84.77682922941077
 23
189.7270557565008
 33
0
  0
MTEXT
  5
11F
100
AcDbEntity
  8
0
  6
CONTINUOUS
 62
    0
370
   -2
100
AcDbMText
 10
83.3181138871836
 20
179.7270557565008
 30
0
 40
2.5
 41
3.055555555555711
 71
    5
 72
    1
  1
25
  7
STANDARD
210
0
220
0
230
1
 50
90
 73
    2
 44
1
  0
ENDBLK
  5
91
330
8F
100
AcDbEntity
  8
0
100
AcDbBlockEnd
  0
BLOCK
  5
93
330
92
100
AcDbEntity
  8
0
100
AcDbBlockBegin
  2
*D1
 70
    1
 10
0
 20
0
  3
*D1
  1

  0
LINE
  5
120
100
AcDbEntity
  8
0
  6
ByBlock
 62
    0
370
   -2
100
AcDbLine
 10
152.7
 20
99.37500000000001
 11
152.7
 21
67.75000000000001
  0
LINE
  5
121
100
AcDbEntity
  8
0
  6
ByBlock
 62
    0
370
   -2
100
AcDbLine
 10
120
 20
99.375
 11
120
 21
67.75
  0
LINE
  5
122
100
AcDbEntity
  8
0
  6
ByBlock
 62
    0
370
   -2
100
AcDbLine
 10
152.7
 20
69.00000000000001
 11
120
 21
69
  0
SOLID
  5
123
100
AcDbEntity
  8
0
  6
ByBlock
 62
    0
370
   -2
100
AcDbTrace
 10
152.7
 20
69.00000000000001
 30
0
 11
150.2
 21
68.58371534222718
 31
0
 12
150.2
 22
69.41628465777285
 32
0
 13
150.2
 23
69.41628465777285
 33
0
  0
SOLID
  5
124
100
AcDbEntity
  8
0
  6
ByBlock
 62
    0
370
   -2
100
AcDbTrace
 10
120
 20
69
 30
0
 11
122.5
 21
69.41628465777283
 31
0
 12
122.5
 22
68.58371534222717
 32
0
 13
122.5
 23
68.58371534222717
 33
0
  0
MTEXT
  5
125
100
AcDbEntity
  8
0
  6
CONTINUOUS
 62
    0
370
   -2
100
AcDbMText
 10
136.35
 20
70.875
 30
0
 40
2.5
 41
5.972222222222378
 71
    5
 72
    1
  1
32,7
  7
STANDARD
210
0
220
0
230
1
 50
360
 73
    2
 44
1
  0
ENDBLK
  5
94
330
92
100
AcDbEntity
  8
0
100
AcDbBlockEnd
  0
ENDSEC
  0
SECTION
  2
ENTITIES
  0
LINE
  5
126
100
AcDbEntity
  8
0
  6
ByLayer
 62
  256
370
   -1
100
AcDbLine
 10
152.4
 20
100
 11
120
 21
100
  0
DIMENSION
  5
127
100
AcDbEntity
  8
0
  6
ByLayer
 62
  256
370
   -1
100
AcDbDimension
  2
*D1
 10
120
 20
69
 30
0
 11
136.35
 21
70.875
 31
0
 70
   33
 71
    5
  3
Standard
 53
0
210
0
220
0
230
1
100
AcDbAlignedDimension
 13
152.7
 23
100
 33
0
 14
120
 24
100
 34
0
  0
LINE
  5
128
100
AcDbEntity
  8
0
  6
ByLayer
 62
  256
370
   13
100
AcDbLine
 10
200
 20
99.9999
 11
200
 21
-5.57565e-05
  0
LINE
  5
129
100
AcDbEntity
  8
0
  6
ByLayer
 62
  256
370
   13
100
AcDbLine
 10
200
 20
100
 11
260
 21
100
  0
LINE
  5
12A
100
AcDbEntity
  8
0
  6
ByLayer
 62
  256
370
   13
100
AcDbLine
 10
120
 20
100
 11
200
 21
100
  0
LINE
  5
12B
100
AcDbEntity
  8
0
  6
ByLayer
 62
  256
370
   13
100
AcDbLine
 10
200
 20
100
 11
200
 21
180
  0
LINE
  5
12C
100
AcDbEntity
  8
0
  6
ByLayer
 62
  256
370
   13
100
AcDbLine
 10
160
 20
140
 11
120
 21
100
  0
DIMENSION
  5
12D
100
AcDbEntity
  8
0
  6
ByLayer
 62
  256
370
   -1
100
AcDbDimension
  2
*D2
 10
47
 20
130
 30
0
 11
45.125
 21
115.8
 31
0
 70
   33
 71
    5
  3
Standard
 53
0
210
0
220
0
230
1
100
AcDbAlignedDimension
 13
50
 23
101.6
 33
0
 14
50
 24
130
 34
0
  0
LWPOLYLINE
  5
12E
100
AcDbEntity
  8
0
  6
ByLayer
 62
  256
370
   -1
100
AcDbPolyline
 90
    4
 70
    1
 43
0
 10
38
 20
1
 10
38
 20
-21
 10
52
 20
-21
 10
52
 20
1
  0
LWPOLYLINE
  5
12F
100
AcDbEntity
  8
0
  6
ByLayer
 62
  256
370
   -1
100
AcDbPolyline
 90
    4
 70
    1
 43
0
 10
41
 20
-21
 10
41
 20
-34
 10
41
 20
-34
 10
41
 20
-21
  0
LWPOLYLINE
  5
130
100
AcDbEntity
  8
0
  6
ByLayer
 62
  256
370
   -1
100
AcDbPolyline
 90
    4
 70
    1
 43
0
 10
48
 20
-21
 10
48
 20
-34
 10
48
 20
-34
 10
48
 20
-21
  0
LWPOLYLINE
  5
131
100
AcDbEntity
  8
0
  6
ByLayer
 62
  256
370
   13
100
AcDbPolyline
 90
    5
 70
    1
 43
0
 10
164
 20
111
 10
164
 20
89
 10
178
 20
89
 10
178
 20
111
 10
178
 20
111
  0
LWPOLYLINE
  5
132
100
AcDbEntity
  8
0
  6
ByLayer
 62
  256
370
   13
100
AcDbPolyline
 90
    5
 70
    1
 43
0
 10
100.6270330566326
 20
120.3671423019134
 10
109.8658283817455
 20
124.1939766255643
 10
129
 20
78
 10
119.7612046748871
 20
74.1731656763491
 10
119.7612046748871
 20
74.1731656763491
  0
LWPOLYLINE
  5
133
100
AcDbEntity
  8
0
  6
ByLayer
 62
  256
370
   13
100
AcDbPolyline
 90
    5
 70
    1
 43
0
 10
227.6856701288469
 20
175.5626762822076
 10
222.6856701288469
 20
166.9024222443633
 10
179.3843999396249
 20
191.9024222443633
 10
184.3843999396249
 20
200.5626762822077
 10
184.3843999396249
 20
200.5626762822077
  0
LWPOLYLINE
  5
134
100
AcDbEntity
  8
0
  6
ByLayer
 62
  256
370
   13
100
AcDbPolyline
 90
    5
 70
    1
 43
0
 10
167
 20
89
 10
167
 20
76
 10
167
 20
76
 10
167
 20
89
 10
167
 20
89
  0
LWPOLYLINE
  5
135
100
AcDbEntity
  8
0
  6
ByLayer
 62
  256
370
   13
100
AcDbPolyline
 90
    5
 70
    1
 43
0
 10
174
 20
89
 10
174
 20
76
 10
174
 20
76
 10
174
 20
89
 10
174
 20
89
  0
CIRCLE
  5
136
100
AcDbEntity
  8
0
  6
ByLayer
 62
    3
370
   13
100
AcDbCircle
 10
120
 20
100
 40
15
  0
CIRCLE
  5
137
100
AcDbEntity
  8
0
  6
ByLayer
 62
    3
370
   13
100
AcDbCircle
 10
200
 20
100
 40
15
  0
CIRCLE
  5
138
100
AcDbEntity
  8
0
  6
ByLayer
 62
    3
370
   13
100
AcDbCircle
 10
200
 20
180
 40
15
  0
LINE
  5
139
100
AcDbEntity
  8
0
  6
ByLayer
 62
  256
370
   13
100
AcDbLine
 10
200
 20
-5.57565e-05
 11
200
 21
-50.0001
  0
MTEXT
  5
13A
100
AcDbEntity
  8
0
  6
ByLayer
 62
  256
370
   13
100
AcDbMText
 10
220
 20
-25
 30
0
 40
10
 41
4.444444444444445
 71
    1
 72
    1
  1
L
  7

210
0
220
0
230
1
 50
0
 73
    2
 44
1
  0
MTEXT
  5
13B
100
AcDbEntity
  8
0
  6
ByLayer
 62
  256
370
   13
100
AcDbMText
 10
220
 20
55
 30
0
 40
10
 41
10
 71
    1
 72
    1
  1
L1
  7

210
0
220
0
230
1
 50
0
 73
    2
 44
1
  0
MTEXT
  5
13C
100
AcDbEntity
  8
0
  6
ByLayer
 62
  256
370
   13
100
AcDbMText
 10
240
 20
135
 30
0
 40
10
 41
12.22222222222222
 71
    1
 72
    1
  1
L2
  7

210
0
220
0
230
1
 50
0
 73
    2
 44
1
  0
MTEXT
  5
13D
100
AcDbEntity
  8
0
  6
ByLayer
 62
  256
370
   13
100
AcDbMText
 10
136.6666666666667
 20
145
 30
0
 40
10
 41
28.88888888888936
 71
    1
 72
    1
  1
Oven
  7

210
0
220
0
230
1
 50
0
 73
    2
 44
1
  0
MTEXT
  5
13E
100
AcDbEntity
  8
0
  6
ByLayer
 62
  256
370
   13
100
AcDbMText
 10
182
 20
131
 30
0
 40
10
 41
23.33333121331184
 71
    1
 72
    1
  1
PBS
  7

210
0
220
0
230
1
 50
0
 73
    2
 44
1
  0
MTEXT
  5
13F
100
AcDbEntity
  8
0
  6
ByLayer
 62
  256
370
   13
100
AcDbMText
 10
220
 20
205
 30
0
 40
10
 41
14.44444444444444
 71
    1
 72
    1
  1
M2
  7

210
0
220
0
230
1
 50
0
 73
    2
 44
1
  0
LWPOLYLINE
  5
140
100
AcDbEntity
  8
0
  6
ByLayer
 62
    1
370
   13
100
AcDbPolyline
 90
    6
 70
    1
 43
0
 10
7.895728752538105
 20
199.8642712474619
 10
50.32213562373096
 20
242.2906781186547
 10
78.60640687119286
 20
214.0064068711928
 10
36.18000000000001
 20
171.58
 10
36.18000000000001
 20
171.58
 10
36.18000000000001
 20
171.58
  0
LWPOLYLINE
  5
141
100
AcDbEntity
  8
0
  6
ByLayer
 62
  256
370
   13
100
AcDbPolyline
 90
    5
 70
    1
 43
0
 10
50
 20
130
 10
51
 20
130
 10
51
 20
101.6
 10
50
 20
101.6
 10
50
 20
101.6
  0
LWPOLYLINE
  5
142
100
AcDbEntity
  8
0
  6
ByLayer
 62
  256
370
   13
100
AcDbPolyline
 90
    5
 70
    1
 43
0
 10
40
 20
90
 10
62
 20
90
 10
62
 20
20
 10
40
 20
20
 10
40
 20
20
  0
MTEXT
  5
143
100
AcDbEntity
  8
0
  6
ByLayer
 62
  256
370
   13
100
AcDbMText
 10
155
 20
75
 30
0
 40
10
 41
16.66666666666697
 71
    1
 72
    1
  1
l/2
  7

210
0
220
0
230
1
 50
0
 73
    2
 44
1
  0
ELLIPSE
  5
144
100
AcDbEntity
  8
0
  6
ByLayer
 62
  256
370
   13
100
AcDbEllipse
 10
200
 20
-40.0001
 30
0
 11
-10.0519
 21
1.231002716034928e-15
 31
0
 40
0.1015131467682727
 41
0
 42
6.283185307179586
  0
MTEXT
  5
145
100
AcDbEntity
  8
0
  6
ByLayer
 62
  256
370
   13
100
AcDbMText
 10
90
 20
85
 30
0
 40
10
 41
12.22222222222222
 71
    1
 72
    1
  1
M1
  7

210
0
220
0
230
1
 50
0
 73
    2
 44
1
  0
LWPOLYLINE
  5
146
100
AcDbEntity
  8
0
  6
ByLayer
 62
  256
370
   13
100
AcDbPolyline
 90
    6
 70
    1
 43
0
 10
167
 20
76
 10
167
 20
76
 10
174
 20
76
 10
174
 20
76
 10
174
 20
76
 10
174
 20
76
  0
DIMENSION
  5
147
100
AcDbEntity
  8
0
  6
ByLayer
 62
  256
370
   13
100
AcDbDimension
  2
*D3
 10
180
 20
-40.00005575650081
 30
0
 11
178.125
 21
29.99994424349919
 31
0
 70
   33
 71
    5
  3
Standard
 53
0
210
0
220
0
230
1
100
AcDbAlignedDimension
 13
200
 23
99.99994424349917
 33
0
 14
200
 24
-40.00005575650083
 34
0
  0
DIMENSION
  5
148
100
AcDbEntity
  8
0
  6
ByLayer
 62
  256
370
   13
100
AcDbDimension
  2
*D4
 10
200
 20
90
 30
0
 11
160
 21
91.875
 31
0
 70
   33
 71
    5
  3
Standard
 53
0
210
0
220
0
230
1
100
AcDbAlignedDimension
 13
120
 23
100
 33
0
 14
200
 24
100
 34
0
  0
DIMENSION
  5
149
100
AcDbEntity
  8
0
  6
ByLayer
 62
  256
370
   13
100
AcDbDimension
  2
*D5
 10
175
 20
205
 30
0
 11
133.6741747852752
 21
166.3258252147248
 31
0
 70
   33
 71
    5
  3
Standard
 53
0
210
0
220
0
230
1
100
AcDbAlignedDimension
 13
120
 23
100
 33
0
 14
200
 24
180
 34
0
  0
LINE
  5
14A
100
AcDbEntity
  8
0
  6
ByLayer
 62
  256
370
   13
100
AcDbLine
 10
200
 20
180
 11
120
 21
100
  0
DIMENSION
  5
14B
100
AcDbEntity
  8
0
  6
ByLayer
 62
  256
370
   13
100
AcDbDimension
  2
*D6
 10
210
 20
100
 30
0
 11
208.125
 21
140
 31
0
 70
   33
 71
    5
  3
Standard
 53
0
210
0
220
0
230
1
100
AcDbAlignedDimension
 13
200
 23
180
 33
0
 14
200
 24
100
 34
0
  0
DIMENSION
  5
14C
100
AcDbEntity
  8
0
  6
ByLayer
 62
  256
370
   13
100
AcDbDimension
  2
*D7
 10
30
 20
90
 30
0
 11
28.125
 21
55
 31
0
 70
   33
 71
    5
 72
    0
  3
Standard
 53
0
210
0
220
0
230
1
100
AcDbAlignedDimension
 13
40
 23
20
 33
0
 14
40
 24
90
 34
0
  0
DIMENSION
  5
14D
100
AcDbEntity
  8
0
  6
ByLayer
 62
  256
370
   13
100
AcDbDimension
  2
*D8
 10
62
 20
16
 30
0
 11
51
 21
17.875
 31
0
 70
   33
 71
    5
  3
Standard
 53
0
210
0
220
0
230
1
100
AcDbAlignedDimension
 13
40
 23
20
 33
0
 14
62
 24
20
 34
0
  0
DIMENSION
  5
14E
100
AcDbEntity
  8
0
  6
ByLayer
 62
  256
370
   13
100
AcDbDimension
  2
*D9
 10
52
 20
2
 30
0
 11
45
 21
3.875
 31
0
 70
   33
 71
    5
  3
Standard
 53
0
210
0
220
0
230
1
100
AcDbAlignedDimension
 13
38
 23
1
 33
0
 14
52
 24
1
 34
0
  0
DIMENSION
  5
14F
100
AcDbEntity
  8
0
  6
ByLayer
 62
  256
370
   13
100
AcDbDimension
  2
*D10
 10
36
 20
1
 30
0
 11
34.125
 21
-10
 31
0
 70
   33
 71
    5
  3
Standard
 53
0
210
0
220
0
230
1
100
AcDbAlignedDimension
 13
38
 23
-21
 33
0
 14
38
 24
1
 34
0
  0
DIMENSION
  5
150
100
AcDbEntity
  8
0
  6
ByLayer
 62
  256
370
   13
100
AcDbDimension
  2
*D11
 10
33
 20
-34
 30
0
 11
31.125
 21
-27.5
 31
0
 70
   33
 71
    5
  3
Standard
 53
0
210
0
220
0
230
1
100
AcDbAlignedDimension
 13
41
 23
-21
 33
0
 14
41
 24
-34
 34
0
  0
DIMENSION
  5
151
100
AcDbEntity
  8
0
  6
ByLayer
 62
  256
370
   13
100
AcDbDimension
  2
*D12
 10
48
 20
-36
 30
0
 11
44.5
 21
-34.125
 31
0
 70
   33
 71
    5
  3
Standard
 53
0
210
0
220
0
230
1
100
AcDbAlignedDimension
 13
41
 23
-34
 33
0
 14
48
 24
-34
 34
0
  0
LWPOLYLINE
  5
152
100
AcDbEntity
  8
0
  6
ByLayer
 62
  256
370
   13
100
AcDbPolyline
 90
    5
 70
    1
 43
0
 10
41
 20
-34
 10
41
 20
-34
 10
48
 20
-34
 10
48
 20
-34
 10
48
 20
-34
  0
DIMENSION
  5
153
100
AcDbEntity
  8
0
  6
ByLayer
 62
  256
370
   13
100
AcDbDimension
  2
*D13
 10
35
 20
148
 30
0
 11
42.5
 21
149.875
 31
0
 70
   33
 71
    5
  3
Standard
 53
0
210
0
220
0
230
1
100
AcDbAlignedDimension
 13
50
 23
150
 33
0
 14
35
 24
150
 34
0
  0
CIRCLE
  5
154
100
AcDbEntity
  8
0
  6
ByLayer
 62
    3
370
   13
100
AcDbCircle
 10
50
 20
150
 40
15
  0
DIMENSION
  5
155
100
AcDbEntity
  8
0
  6
ByLayer
 62
  256
370
   13
100
AcDbDimension
  2
*D14
 10
4.015728752538138
 20
195.9842712474618
 30
0
 11
19.48368959099385
 21
183.1679608384557
 31
0
 70
   33
 71
    5
  3
Standard
 53
0
210
0
220
0
230
1
100
AcDbAlignedDimension
 13
36.18000000000004
 23
171.58
 33
0
 14
7.895728752538162
 24
199.8642712474619
 34
0
  0
DIMENSION
  5
156
100
AcDbEntity
  8
0
  6
ByLayer
 62
  256
370
   13
100
AcDbDimension
  2
*D15
 10
81.30640687119282
 20
211.3064068711928
 30
0
 11
58.76737822087163
 21
191.4190286503212
 31
0
 70
   33
 71
    5
  3
Standard
 53
0
210
0
220
0
230
1
100
AcDbAlignedDimension
 13
36.18000000000004
 23
171.58
 33
0
 14
78.60640687119286
 24
214.0064068711928
 34
0
  0
DIMENSION
  5
157
100
AcDbEntity
  8
0
  6
ByLayer
 62
  256
370
   13
100
AcDbDimension
  2
*D16
 10
85.1931138871836
 20
192.2270557565008
 30
0
 11
83.3181138871836
 21
179.7270557565008
 31
0
 70
   33
 71
    5
 72
    0
  3
Standard
 53
0
210
0
220
0
230
1
100
AcDbAlignedDimension
 13
76.84358133386111
 23
167.2270557565008
 33
0
 14
76.84358133386111
 24
192.2270557565008
 34
0
  0
LWPOLYLINE
  5
158
100
AcDbEntity
  8
0
  6
ByLayer
 62
  256
370
   13
100
AcDbPolyline
 90
    7
 70
    1
 43
0
 10
124.8728188486959
 20
133.1570900961578
 10
167.2992257198888
 20
175.5834969673507
 10
195.5834969673507
 20
147.2992257198888
 10
153.1570900961578
 20
104.872818848696
 10
153.1570900961578
 20
104.872818848696
 10
153.1570900961578
 20
104.872818848696
 10
153.1570900961578
 20
104.872818848696
  0
DIMENSION
  5
159
100
AcDbEntity
  8
0
  6
ByLayer
 62
  256
370
   13
100
AcDbDimension
  2
*D17
 10
161.2834969673507
 20
181.5992257198888
 30
0
 11
138.7444683170295
 21
161.7118474990172
 31
0
 70
   33
 71
    5
  3
Standard
 53
0
210
0
220
0
230
1
100
AcDbAlignedDimension
 13
124.8728188486959
 23
133.1570900961578
 33
0
 14
167.2992257198888
 24
175.5834969673507
 34
0
  0
DIMENSION
  5
15A
100
AcDbEntity
  8
0
  6
ByLayer
 62
  256
370
   13
100
AcDbDimension
  2
*D18
 10
189.8570900961579
 20
141.5728188486959
 30
0
 11
177.0407796871517
 21
157.0407796871516
 31
0
 70
   33
 71
    5
  3
Standard
 53
0
210
0
220
0
230
1
100
AcDbAlignedDimension
 13
167.2992257198888
 23
175.5834969673507
 33
0
 14
195.5834969673508
 24
147.2992257198888
 34
0
  0
DIMENSION
  5
15B
100
AcDbEntity
  8
0
  6
ByLayer
 62
  256
370
   -1
100
AcDbDimension
  2
*D19
 10
134.8785443947472
 20
123.1513645501066
 30
0
 11
124.0452419438089
 21
114.9697125286179
 31
0
 70
   33
 71
    5
  3
Standard
 53
0
210
0
220
0
230
1
100
AcDbAlignedDimension
 13
120
 23
100
 33
0
 14
139.0149544724269
 24
119.0149544724269
 34
0
  0
DIMENSION
  5
15C
100
AcDbEntity
  8
0
  6
ByLayer
 62
  256
370
   -1
100
AcDbDimension
  2
*D20
 10
178.2681050249564
 20
164.6146176622831
 30
0
 11
186.2215991384218
 21
175.219762205198
 31
0
 70
   33
 71
    5
  3
Standard
 53
0
210
0
220
0
230
1
100
AcDbAlignedDimension
 13
200
 23
180
 33
0
 14
181.4413613436197
 24
161.4413613436197
 34
0
  0
DIMENSION
  5
15D
100
AcDbEntity
  8
0
  6
ByLayer
 62
  256
370
   -1
100
AcDbDimension
  2
*D21
 10
186
 20
100
 30
0
 11
184.125
 21
88.5
 31
0
 70
   33
 71
    5
  3
Standard
 53
0
210
0
220
0
230
1
100
AcDbAlignedDimension
 13
200
 23
77
 33
0
 14
200
 24
100
 34
0
  0
ELLIPSE
  5
15E
100
AcDbEntity
  8
0
  6
ByLayer
 62
  256
370
   13
100
AcDbEllipse
 10
211
 20
76
 30
0
 11
-1.846504074052392e-15
 21
-10.0519
 31
0
 40
0.1015131467682727
 41
0
 42
6.283185307179586
  0
DIMENSION
  5
15F
100
AcDbEntity
  8
0
  6
ByLayer
 62
  256
370
   -1
100
AcDbDimension
  2
*D22
 10
200
 20
64
 30
0
 11
205.5
 21
65.875
 31
0
 70
   33
 71
    5
  3
Standard
 53
0
210
0
220
0
230
1
100
AcDbAlignedDimension
 13
211
 23
76
 33
0
 14
200
 24
76
 34
0
  0
LINE
  5
160
100
AcDbEntity
  8
0
  6
ByLayer
 62
  256
370
   13
100
AcDbLine
 10
200
 20
77
 11
246
 21
76.9999
  0
LWPOLYLINE
  5
161
100
AcDbEntity
  8
0
  6
ByLayer
 62
  256
370
   13
100
AcDbPolyline
 90
    5
 70
    1
 43
0
 10
189.2110606331155
 20
86.3747258045114
 10
189.918167414302
 20
87.08183258569795
 10
210
 20
67
 10
209.2928932188134
 20
66.29289321881345
 10
209.2928932188134
 20
66.29289321881345
  0
DIMENSION
  5
162
100
AcDbEntity
  8
0
  6
ByLayer
 62
  256
370
   13
100
AcDbDimension
  2
*D23
 10
187.0897402895558
 20
84.25340546095175
 30
0
 11
198.4564817971296
 21
75.53831438282755
 31
0
 70
   33
 71
    5
  3
Standard
 53
0
210
0
220
0
230
1
100
AcDbAlignedDimension
 13
209.2928932188134
 23
66.29289321881345
 33
0
 14
189.2110606331155
 24
86.3747258045114
 34
0
  0
DIMENSION
  5
163
100
AcDbEntity
  8
0
  6
ByLayer
 62
  256
370
   13
100
AcDbDimension
  2
*D24
 10
200.918167414302
 20
78.08183258569797
 30
0
 11
207.2849089218758
 21
74.36674150757375
 31
0
 70
   33
 71
    5
  3
Standard
 53
0
210
0
220
0
230
1
100
AcDbAlignedDimension
 13
210
 23
67
 33
0
 14
199.918167414302
 24
77.08183258569798
 34
0
  0
LWPOLYLINE
  5
164
100
AcDbEntity
  8
0
  6
ByLayer
 62
  256
370
   -1
100
AcDbPolyline
 90
    4
 70
    1
 43
0
 10
187.5
 20
112.5
 10
212.5
 20
112.5
 10
212.5
 20
87.5
 10
187.5
 20
87.5
  0
LWPOLYLINE
  5
165
100
AcDbEntity
  8
0
  6
ByLayer
 62
  256
370
   -1
100
AcDbPolyline
 90
    4
 70
    1
 43
0
 10
76.84358133386111
 20
192.2270557565008
 10
101.8435813338611
 20
192.2270557565008
 10
101.8435813338611
 20
167.2270557565008
 10
76.84358133386111
 20
167.2270557565008
  0
ELLIPSE
  5
166
100
AcDbEntity
  8
0
  6
ByLayer
 62
  256
370
   13
100
AcDbEllipse
 10
224
 20
100
 30
0
 11
-1.846504074052392e-15
 21
-10.0519
 31
0
 40
0.1015131467682727
 41
1.776361206094789e-15
 42
6.283185307179586
  0
ENDSEC
  0
SECTION
  2
OBJECTS
  0
DICTIONARY
  5
C
330
0
100
AcDbDictionary
281
    1
  3
ACAD_GROUP
350
D
  0
DICTIONARY
  5
D
330
C
100
AcDbDictionary
281
    1
  0
ENDSEC
  0
EOF
